<?xml version="1.0" standalone="no"?>
<!DOCTYPE svg PUBLIC "-//W3C//DTD SVG 20010904//EN"
 "http://www.w3.org/TR/2001/REC-SVG-20010904/DTD/svg10.dtd">
<svg version="1.0" xmlns="http://www.w3.org/2000/svg"
 width="128.000000pt" height="128.000000pt" viewBox="0 0 128.000000 128.000000"
 preserveAspectRatio="xMidYMid meet">
<metadata>
Created by potrace 1.14, written by Peter Selinger 2001-2017
</metadata>
<g transform="translate(0.000000,128.000000) scale(0.100000,-0.100000)"
fill="#000000" stroke="none">
<path d="M435 1226 c-21 -16 -32 -61 -30 -131 2 -65 21 -193 35 -238 6 -19 5
-38 -6 -62 -30 -72 -14 -102 84 -161 23 -14 42 -28 42 -30 0 -2 -15 -2 -32 -1
-18 2 -53 -2 -77 -9 -50 -15 -83 -5 -134 38 l-27 23 26 12 c24 11 26 10 21 -7
-8 -30 8 -32 32 -4 16 18 20 31 15 47 -5 12 -7 27 -6 34 2 7 -9 20 -23 29 -14
9 -25 23 -25 30 0 8 -8 14 -19 14 -10 0 -24 6 -31 14 -6 8 -17 13 -25 10 -7
-3 -16 -1 -20 5 -8 14 -72 14 -80 0 -4 -6 -13 -8 -20 -5 -25 9 -68 -127 -54
-176 4 -15 6 -28 4 -30 -2 -2 9 -21 23 -43 34 -50 140 -107 215 -114 10 -1 9
-65 -3 -96 -5 -14 -22 -37 -37 -51 l-27 -25 17 -82 c10 -52 26 -96 44 -121 55
-78 119 -61 103 27 -9 46 -6 57 16 57 8 0 25 7 38 15 22 15 23 14 35 -27 18
-59 48 -106 74 -114 37 -13 46 -13 57 1 9 11 16 11 38 -1 59 -31 106 -7 95 49
-3 18 -12 47 -19 66 -18 43 -19 41 19 41 30 0 36 -5 55 -48 12 -26 34 -62 50
-81 24 -29 35 -34 71 -35 63 -1 70 15 42 108 -20 66 -21 80 -10 111 12 32 14
34 21 15 12 -32 31 -13 24 23 -5 25 -4 29 6 19 7 -7 16 -12 20 -12 19 0 5 28
-32 64 -22 22 -40 49 -40 60 0 12 -9 36 -21 55 -14 24 -17 37 -10 44 6 6 11
19 11 29 0 11 11 23 25 28 14 5 31 14 38 20 111 90 137 112 137 116 0 3 -13
35 -30 71 -21 44 -27 70 -21 81 31 60 29 269 -4 332 -12 23 -20 28 -44 25 -40
-5 -99 -31 -138 -61 -25 -19 -39 -23 -60 -17 l-28 7 33 8 c17 5 32 13 32 19 0
17 -26 21 -65 10 -35 -9 -36 -9 -21 8 33 37 -16 43 -55 7 -19 -18 -30 -21 -37
-14 -8 8 -15 3 -24 -18 -6 -16 -13 -30 -14 -32 -1 -2 -26 9 -55 24 -91 46
-172 67 -194 50z"/>
</g>
</svg>
