<?xml version="1.0" encoding="utf-8"?>
<!-- Generator: Adobe Illustrator 25.2.1, SVG Export Plug-In . SVG Version: 6.00 Build 0)  -->
<svg version="1.1" id="Layer_1" xmlns="http://www.w3.org/2000/svg" xmlns:xlink="http://www.w3.org/1999/xlink" x="0px" y="0px"
	 viewBox="0 0 1088.63 666.38" style="enable-background:new 0 0 1088.63 666.38;" xml:space="preserve">
<style type="text/css">
	.st0{opacity:0.33;}
	.st1{clip-path:url(#SVGID_2_);}
	.st2{clip-path:url(#SVGID_4_);}
	.st3{fill:#4C9CD3;}
</style>
<g class="st0">
	<g>
		<defs>
			<rect id="SVGID_1_" width="1088.63" height="666.38"/>
		</defs>
		<clipPath id="SVGID_2_">
			<use xlink:href="#SVGID_1_"  style="overflow:visible;"/>
		</clipPath>
		<g class="st1">
			<g>
				<defs>
					<path id="SVGID_3_" d="M432.92-0.01c-55.46,0.07-111.48,18.72-152.67,52.27c-65,53-92.34,138.1-75.62,215.25
						c-54.77-16.08-158.35,13.11-190.37,59.39c-4.45,6.42-7.92,13.47-10.3,20.92c-13,40.72,7.75,89,37.34,122.27
						c32.63,36.71,80,60.89,129,77.64c96.18,32.88,356.32,75.56,406.09-37.87c-7.69,45.32,44.29,79.12,90,100
						c48.57,22.23,98.85,43.31,152.8,50.68c23.56,3.22,49.84,5.77,76.26,5.81h1.24c40.3-0.06,80.83-6,112.43-24.44
						c39.77-23.18,59.68-78.19,26.73-108.73c40-18,58.93-62.84,51.06-102.2s-38.06-72.9-74.19-96.52
						C951.14,294.2,852.97,284.29,806,338c8.83-43.66-15.34-95-57-118.71c-18.44-10.48-114.95-32.41-125.86-1.42
						c26.4-75-19.15-162.84-97.5-198.63c-28.54-13-60.23-19.23-92.12-19.26L432.92-0.01z"/>
				</defs>
				<clipPath id="SVGID_4_">
					<use xlink:href="#SVGID_3_"  style="overflow:visible;"/>
				</clipPath>
				<g class="st2">
					<polygon class="st3" points="-360.77,440.81 366.04,-466.32 1449.4,225.56 722.59,1132.69 					"/>
				</g>
			</g>
		</g>
	</g>
</g>
</svg>
