<?xml version="1.0" encoding="utf-8"?>
<!-- Generator: Adobe Illustrator 25.2.1, SVG Export Plug-In . SVG Version: 6.00 Build 0)  -->
<svg version="1.1" id="Layer_1" xmlns="http://www.w3.org/2000/svg" xmlns:xlink="http://www.w3.org/1999/xlink" x="0px" y="0px"
	 viewBox="0 0 1088.06 1039.09" style="enable-background:new 0 0 1088.06 1039.09;" xml:space="preserve">
<style type="text/css">
	.st0{fill:#4C9CD3; opacity: 0.33;}
</style>
<path class="st0" d="M432.65,0c-55.41,0.12-111.4,29.21-152.56,81.5c-64.99,82.57-92.29,215.34-75.58,335.64
	c-54.74-25.08-158.27,20.44-190.27,92.6c-4.6,10.37-7.98,21.31-10.29,32.62c-12.99,63.49,7.75,138.76,37.32,190.66
	c32.61,57.24,79.94,94.94,128.93,121.07c96.13,51.26,356.14,117.83,405.87-59.05c-7.69,70.67,44.27,123.37,89.93,155.97
	c48.55,34.66,98.8,67.54,152.72,79.03c59.82,12.74,137.22,18.79,189.84-29.05c39.74-36.14,59.65-121.93,26.72-169.55
	c39.99-28.02,58.9-97.98,51.03-159.36c-7.87-61.38-38.04-113.67-74.16-150.51c-61.55-62.77-159.66-78.23-206.61,5.51
	c8.82-68.07-15.33-148.19-56.95-185.1c-18.43-16.35-114.89-50.53-125.79-2.21c26.38-116.88-19.14-253.92-97.44-309.73
	C496.84,9.72,465.19,0.07,433.34,0H432.65z"/>
</svg>
