<?xml version="1.0" encoding="utf-8"?>
<!-- Generator: Adobe Illustrator 25.2.1, SVG Export Plug-In . SVG Version: 6.00 Build 0)  -->
<svg version="1.1" id="Layer_1" xmlns="http://www.w3.org/2000/svg" xmlns:xlink="http://www.w3.org/1999/xlink" x="0px" y="0px"
	 viewBox="0 0 1278.63 1120.84" style="enable-background:new 0 0 1278.63 1120.84;" xml:space="preserve">
<style type="text/css">
	.st0{fill:#4C9CD3; opacity: 0.33;}
</style>
<path class="st0" d="M817.31,26.28C744.5,76.86,700.09,193.76,705.78,306.81c-10.5-37.99-45.03-59.07-72.2-44.08
	c-23.24,12.83-37.43,50.03-34.14,84.12C575.22,240.64,481.85,173.21,405.9,211.54c-72.67,36.68-113.12,161.36-89.84,262.52
	c-11.6-33.58-43.61-46.56-69.42-48.1c-19.12-1.14-38.07,4.51-56.78,10.12c-25.63,7.69-51.67,15.59-74.66,33.11
	c-39.95,30.44-67.46,90.25-70.93,153.48c-3.46,63.24,17.11,127.99,52.85,167.28C62.2,751.59,0.12,772.59,0,838.84v0.44
	c0.01,6.3,0.59,13.02,1.8,20.13c10.01,58.79,82.93,81.34,119.44,77.56c-31.27,10.05-55.23,54.89-47.18,100.18
	c11.61,65.35,62.99,83.65,113.73,83.68h0.25c33.6-0.02,66.9-8.02,88.15-15.67c21.84-7.85,42.07-4.66,62.76-1.47
	c13.76,2.12,27.73,4.24,42.52,3.12c14.93-1.14,32.98-2.55,45.37-17.49c3.7-4.45,30.09-62.92,22.58-68.35
	c68.15,49.29,243.16-111.52,164.79-230.08c21.12,31.94,78.89,30.39,105.88,24.62c18.86-4.05,38.89-11.27,54.65-29.36
	c13.89-15.94,25.49-66.08,42.95-67.36c12.74-0.94,37.34,48.09,49.79,59.69c72.03,67.04,157.23,43.38,233.23,8.31
	c42.1-19.42,84.36-42.22,118.72-81.28c34.36-39.06,60.1-97.14,59.16-158.9c-1.09-71.76-44.24-135.66-96.66-133.29
	c-33.59,1.52-61.23,19.95-80.72,57.77c13.05-25.32,9.06-64.57-8.52-83.85c-16.29-17.86-41.81-15.9-57.08,3.27
	c54.55-80.43,55.23-219.28,3.94-304.3C1005.52,29.78,952.54,0.01,899.62,0C871.18,0,842.77,8.6,817.31,26.28"/>
</svg>
