<?xml version="1.0" encoding="utf-8"?>
<!-- Generator: Adobe Illustrator 25.2.1, SVG Export Plug-In . SVG Version: 6.00 Build 0)  -->
<svg version="1.1" id="Layer_1" xmlns="http://www.w3.org/2000/svg" xmlns:xlink="http://www.w3.org/1999/xlink" x="0px" y="0px"
	 viewBox="0 0 1279.3 718.81" style="enable-background:new 0 0 1279.3 718.81;" xml:space="preserve">
<style type="text/css">
	.st0{opacity:0.33;}
	.st1{clip-path:url(#SVGID_2_);}
	.st2{clip-path:url(#SVGID_4_);}
	.st3{fill:#4C9CD3;}
</style>
<g class="st0">
	<g>
		<defs>
			<rect id="SVGID_1_" width="1279.3" height="718.81"/>
		</defs>
		<clipPath id="SVGID_2_">
			<use xlink:href="#SVGID_1_"  style="overflow:visible;"/>
		</clipPath>
		<g class="st1">
			<g>
				<defs>
					<path id="SVGID_3_" d="M899.84,0c-28.37,0-56.71,5.54-82.1,16.85c-72.85,32.44-117.27,107.41-111.59,179.91
						c-10.5-24.36-45.05-37.88-72.24-28.27c-23.25,8.23-37.44,32.06-34.16,53.95c-24.23-68.12-117.65-111.36-193.64-86.77
						c-72.71,23.52-113.18,103.48-89.89,168.36c-11.6-21.54-43.63-29.86-69.45-30.84c-19.13-0.73-38.1,2.89-56.81,6.49
						c-25.64,4.93-51.69,10-74.7,21.24c-40,19.52-67.5,57.88-71,98.43s17.12,82.08,52.88,107.28c-34.93-24.61-97-11.15-97.17,31.32
						v0.32c0.05,4.36,0.65,8.69,1.8,12.89c10,37.7,83,52.16,119.5,49.74c-31.28,6.45-55.25,35.21-47.2,64.25
						c19.33,69.73,148.8,55.93,202.24,43.62c21.85-5,42.09-3,62.79-0.94c13.77,1.36,27.75,2.72,42.54,2s33-1.63,45.39-11.22
						c3.7-2.85,30.11-40.35,22.6-43.83c68.18,31.61,243.29-71.52,164.87-147.56c21.16,20.48,78.97,19.48,105.97,15.78
						c18.87-2.6,38.9-7.23,54.68-18.83c13.9-10.22,25.5-42.38,43-43.2c12.74-0.6,37.36,30.85,49.82,38.28
						c72.06,43,157.31,27.82,233.35,5.33c42.12-12.46,84.41-27.08,118.78-52.12s60.14-62.29,59.19-101.9
						c-1.09-46-44.26-87-96.7-85.48c-33.61,1-61.26,12.79-80.77,37c13.06-16.24,9.07-41.41-8.53-53.77
						c-16.3-11.46-41.83-10.2-57.11,2.1c54.58-51.58,55.26-140.63,3.95-195.15c-34-36.13-86.9-55.22-139.75-55.29L899.84,0z"/>
				</defs>
				<clipPath id="SVGID_4_">
					<use xlink:href="#SVGID_3_"  style="overflow:visible;"/>
				</clipPath>
				<g class="st2">
					<polygon class="st3" points="54.33,965.28 -165.93,31.19 1225.88,-230.42 1446.15,703.68 					"/>
				</g>
			</g>
		</g>
	</g>
</g>
</svg>
