<svg xmlns="http://www.w3.org/2000/svg" xmlns:xlink="http://www.w3.org/1999/xlink" viewBox="0 0 820.57 254.91"><defs><style>.cls-1{fill:none;}.cls-2{fill:#e6f3ec;}.cls-3{opacity:0.46;}.cls-4{clip-path:url(#clip-path);}.cls-5{clip-path:url(#clip-path-2);}.cls-6{fill:url(#radial-gradient);}.cls-7{clip-path:url(#clip-path-3);}.cls-8{fill:url(#radial-gradient-2);}</style><clipPath id="clip-path"/><clipPath id="clip-path-2"><path class="cls-1" d="M250.61,124.34h0m0,0h0m0,0h0m0,0,.06,0-.06,0m.06,0,.16,0-.16,0M455.13,34.12a101.47,101.47,0,0,0-23.81,3C414.73,42.54,397.93,52,386.57,63.25a53,53,0,0,0-10.81,23.87c-.41-.67-.85-1.29-1.29-1.89-3,10.68-4.68,21.81-12.22,29.5-11.3,11.54-28,1.38-29.23-12.59-1-11.47,7.84-21.74,19.37-26.23-17,1.53-36.73,16-46.66,31.37C299,124.12,301,150.63,276.41,154.6c-17.78,2.87-53.14-23.29-25.81-30.25-7.83,2-19.23,7.58-28.93,14.69-8.76,8.56-15,17.56-16.34,24.58a20.61,20.61,0,0,0-1.86-3.36,14.51,14.51,0,0,0-.65,5.91c-4.47-2.42-13.68-2-18.4-.31-8.77,3.16-13.89,10.53-23.56,12.86-9.4,2.27-19,1.08-28.7-.1-9.11-1.12-18.23-2.23-27.2-.46-10.21,2-20.35,5-30.68,7.72,17.7-1.37,35.46-2.25,53.29-1.11,20.06,1.29,39.91,2.91,59.79-.58,6-1.06,10.17-2.1,14.74-2.3a27.25,27.25,0,0,1,5.49-.26c5.8.33,11.26,2.32,16.66,4.7a109.3,109.3,0,0,0,11.42,3.2c22,4.48,44.4,2.93,63.42-8.33,19.37,18.78,56.45,29.87,84.36,33,24,2.65,48.5,6.52,72.6,4,25.77-2.74,49.37-12.47,74.1-18.81a41.32,41.32,0,0,1,13.05-1c.71,0,1.42,0,2.14,0a59.51,59.51,0,0,1,12.14,2.16c11.05,2.26,22.46,5.1,34.33,2.94,10.63-1.94,21.16-6.57,28.52-13.71,24,13.77,55.78,13.62,84,10.15,24.36-3,43.78-18.4,67.85-21.4a151.22,151.22,0,0,1,30.89-.69c-17.58-6.06-36.72-5.91-55.8-5.77-28.93.22-57.71.43-80.62-21-17.47-16.34-19.23-52.21,15-45.21-9.2-7.32-21.16-9.67-33.74-9-9.66,2.83-18.43,8.38-23.86,15.79a20.42,20.42,0,0,0-3-10.32,134.71,134.71,0,0,0-34.87,17.46c-10.7,7.73-18.46,16.74-20.64,25.83-52.09-5.15-24-87.65,19-64.91a55.78,55.78,0,0,0-19.49-6.16c-15.85.57-27.79,7.64-42.19,16.14L527.4,85a65,65,0,0,0-2.32-8.05C511,80,498.05,85.72,488,95.58c-7.75,7.61-34,31.53-13.59,39.14-37.38,1.44-63.05-14-58.3-50.36,1.6-12.3,8.83-24.45,19.1-32.69,4.15-3.33,31.38-19.05,37.31-13.63a19.6,19.6,0,0,0-4.62-3.14A95.83,95.83,0,0,0,456,34.12Z"/></clipPath><radialGradient id="radial-gradient" cx="257.28" cy="6395.09" r="1" gradientTransform="matrix(654.77, -29.38, -32.91, -584.57, 42445.19, 3745608.65)" gradientUnits="userSpaceOnUse"><stop offset="0" stop-color="#e6f3ec"/><stop offset="0.49" stop-color="#d9efec"/><stop offset="0.84" stop-color="#c7e6da"/><stop offset="1" stop-color="#86d1d5"/></radialGradient><clipPath id="clip-path-3"><path class="cls-1" d="M275.7,175.67a55.39,55.39,0,0,1-18.42,6.52V196.5c4.33.27,8.66.37,13,.32,8.6-.09,17.18-1,25.56-.35,32,2.52,60.93,23,92,30.16,34.76,8,72.4,7.3,104.14-8.82,19.89-10.11,33.43-23.28,57.68-17.07,18.45,4.71,36.14,8.92,54.49.9,6.57-2.87,12.73-7.66,19.32-9.88,16.77,26,63.48,9.53,86.87,7.1-27.15,2.83-50.8,4.2-69.84-15.86-2.22-2.34-21.36-26.57-18.2-28.5-24.3,14.89-69.1,24.5-96.95,11.91-13.68-6.18-33.16-19.83-25.82-35.65-9,5.06-16.69,11.39-26.52,15.62-17.1,7.36-49.23,10.93-67.74,6.35-8.51-2.11-15.9-5.94-21.09-12.42-3.09-3.86-11.54-19.16-8-23.77-6.49,8.36-9.49,15.65-21.66,17.33-22.54,3.09-27-10.6-30.64-27.16-10.22,24.68-22.07,54.09-48.2,68.95"/></clipPath><radialGradient id="radial-gradient-2" cx="257.28" cy="6395.09" r="1" gradientTransform="matrix(572.27, -25.68, -28.77, -510.92, 37172.74, 3273695.52)" gradientUnits="userSpaceOnUse"><stop offset="0" stop-color="#e6f3ec"/><stop offset="0.49" stop-color="#d9efec"/><stop offset="0.86" stop-color="#c7e6da"/><stop offset="0.94" stop-color="#a5dbd7"/><stop offset="1" stop-color="#86d1d5"/></radialGradient></defs><title>cloud_l1</title><g id="Layer_2" data-name="Layer 2"><g id="Layer_1-2" data-name="Layer 1"><path class="cls-2" d="M527.39,85C515.5,29.4,440.1,20.11,396.81,53.38c-12,9.19-18.34,19.91-21.06,33.74-20.14-32.6-78.87,12.65-76.36,40.05-16.56-42.73-89.21,10.47-94.06,36.44-7.87-17.79-26.81-5.46-35.08,2.71-12.56,12.42-18,13.12-34.45,6.47-31.42-12.68-56.22-2.24-86,8.23-16.13,5.67-33.66,5.05-49.81,9.4,42.25.5,84.7-8.41,127.57-5.66,20.06,1.29,39.91,2.91,59.79-.58,9-1.59,13.88-3.21,22.27-1.85s17.42,5.43,26,7.19c22,4.48,44.4,2.93,63.42-8.33,19.37,18.78,56.45,29.87,84.36,33,24,2.64,48.5,6.51,72.6,4,25.77-2.74,49.38-12.47,74.1-18.82,19.44-5,39.78,8,61.66,4.05,10.63-1.94,21.16-6.57,28.52-13.71,24,13.77,55.78,13.61,84,10.15,24.36-3,43.78-18.4,67.85-21.4,17.16-2.13,31.42-1.16,48.38,1.31-11.55-7.36-30.51-9.79-44.52-12.06-14.69-2.38-34.68,2.81-45.27-7.12-10.4-9.75-11.67-28.59-20.12-40.14-9.29-12.71-25.37-23.12-42.73-25.35-16.33-2.09-34.78,5.15-43.86,17.55.12-16.87-26-33-42.72-36.58-24.88-5.29-39.53,3.45-58.45,14.61Z"/><g class="cls-3"><g class="cls-4"><g class="cls-5"><polygon class="cls-6" points="63.72 33.1 801.24 0 813.63 220.18 76.12 253.28 63.72 33.1"/></g></g></g><g class="cls-7"><polygon class="cls-8" points="250.1 107.04 709.18 86.44 717.5 234.31 258.43 254.91 250.1 107.04"/></g></g></g></svg>