<svg xmlns="http://www.w3.org/2000/svg" xmlns:xlink="http://www.w3.org/1999/xlink" viewBox="0 0 576.74 181.33"><defs><style>.cls-1{fill:none;}.cls-2{fill:#e6f3ec;}.cls-3{opacity:0.46;}.cls-4{clip-path:url(#clip-path);}.cls-5{clip-path:url(#clip-path-2);}.cls-6{fill:url(#radial-gradient);}.cls-7{clip-path:url(#clip-path-3);}.cls-8{fill:url(#radial-gradient-2);}</style><clipPath id="clip-path"><rect class="cls-1" x="12.29" y="23.93" width="512.24" height="129.9"/></clipPath><clipPath id="clip-path-2"><path class="cls-1" d="M400.6,87.33h0m0,0h0m-.06,0-.12,0,.12,0M256.11,23.93a67.21,67.21,0,0,0-8.25.55,13.77,13.77,0,0,0-3.25,2.21c4.16-3.81,23.31,7.24,26.22,9.58,7.22,5.79,12.31,14.33,13.43,23,3.34,25.54-14.7,36.41-41,35.4,14.34-5.35-4.11-22.17-9.56-27.51-7.07-6.93-16.14-10.95-26.06-13.1A45.47,45.47,0,0,0,206,59.7l3.17,3.92c-10.12-6-18.52-10.94-29.66-11.34a39.21,39.21,0,0,0-13.7,4.33c30.26-16,50,42,13.4,45.62-1.53-6.39-7-12.72-14.51-18.15a94.7,94.7,0,0,0-24.52-12.27,14.32,14.32,0,0,0-2.12,7.25c-3.82-5.21-10-9.1-16.77-11.09-8.85-.5-17.25,1.16-23.72,6.3,24.06-4.92,22.83,20.29,10.55,31.77C92.08,121.1,71.85,121,51.51,120.81c-13.41-.1-26.87-.19-39.22,4.06a106.53,106.53,0,0,1,21.71.48c16.92,2.1,30.57,12.94,47.69,15,19.84,2.44,42.2,2.54,59-7.14,5.17,5,12.58,8.28,20,9.63,8.34,1.52,16.36-.48,24.13-2.07a41.84,41.84,0,0,1,8.53-1.52c.5,0,1,0,1.5,0a29.06,29.06,0,0,1,9.17.73c17.38,4.46,34,11.3,52.08,13.22,16.94,1.8,34.18-.93,51-2.79,19.62-2.17,45.68-10,59.29-23.17,13.38,7.91,29.1,9,44.58,5.85a77.32,77.32,0,0,0,8-2.25,33.8,33.8,0,0,1,11.7-3.31,19.24,19.24,0,0,1,3.86.18c3.21.14,6.14.88,10.36,1.62,14,2.45,27.92,1.31,42,.41,12.53-.81,25-.19,37.46.77-7.26-1.9-14.38-4-21.56-5.42-6.31-1.25-12.72-.46-19.12.33-6.79.83-13.56,1.67-20.17.08-6.8-1.64-10.4-6.82-16.56-9-3.32-1.19-9.79-1.48-12.94.22a10.1,10.1,0,0,0-.45-4.15,14.59,14.59,0,0,0-1.31,2.36c-.92-4.93-5.32-11.26-11.48-17.27-6.82-5-14.83-8.92-20.34-10.32,19.21,4.9-5.64,23.28-18.14,21.27-17.26-2.78-15.88-21.41-20.61-33.25-7-10.79-20.87-21-32.8-22,8.11,3.16,14.33,10.37,13.62,18.43-.87,9.82-12.6,17-20.54,8.86-5.3-5.41-6.49-13.23-8.59-20.74-.31.43-.61.86-.91,1.33A37.28,37.28,0,0,0,305,44.4c-8-7.89-19.8-14.56-31.45-18.39A71.33,71.33,0,0,0,257,23.93Z"/></clipPath><radialGradient id="radial-gradient" cx="-1461.1" cy="6138.24" r="1" gradientTransform="matrix(-460.21, -20.61, 23.09, -410.87, -813847.93, 2491677.7)" gradientUnits="userSpaceOnUse"><stop offset="0" stop-color="#e6f3ec"/><stop offset="0.49" stop-color="#d9efec"/><stop offset="0.84" stop-color="#c7e6da"/><stop offset="1" stop-color="#86d1d5"/></radialGradient><clipPath id="clip-path-3"><path class="cls-1" d="M446,129.63l-.12,0,.12,0M327.54,94c-8.55-1.17-10.66-6.3-15.23-12.18,2.52,3.24-3.42,14-5.59,16.71-3.65,4.56-8.84,7.25-14.82,8.73-13,3.22-35.59.71-47.61-4.46-6.9-3-12.31-7.42-18.64-11,5.16,11.11-8.53,20.72-18.14,25.06-19.57,8.84-51.06,2.09-68.14-8.37,2.22,1.36-11.23,18.39-12.79,20-13.38,14.1-30,13.14-49.08,11.15,16.44,1.71,49.27,13.3,61.05-5,4.63,1.56,9,4.93,13.58,6.94,12.89,5.63,25.33,2.68,38.3-.64,17-4.36,26.56,4.9,40.54,12,22.31,11.33,48.76,11.8,73.2,6.18,21.85-5,42.21-19.43,64.67-21.21,5.88-.46,11.91.18,18,.24,10.47.11,21.19-1,31.09-4.15,8.58-2.73,18.29-7.71,28-4.54-9.7-3.21-19.16-2.41-28.51-1.62-11.53,1-22.9,2-34.38-4.57C364.59,113,356.27,92.29,349.07,74.95c-2.54,11.63-5.69,21.26-21.53,19.09"/></clipPath><radialGradient id="radial-gradient-2" cx="-1461.1" cy="6138.24" r="1" gradientTransform="matrix(-402.24, -18.02, 20.18, -359.12, -711313.03, 2177840.85)" gradientUnits="userSpaceOnUse"><stop offset="0" stop-color="#e6f3ec"/><stop offset="0.49" stop-color="#d9efec"/><stop offset="0.86" stop-color="#c7e6da"/><stop offset="0.94" stop-color="#a5dbd7"/><stop offset="1" stop-color="#86d1d5"/></radialGradient></defs><title>cloud_r1</title><g id="Layer_2" data-name="Layer 2"><g id="Layer_1-2" data-name="Layer 1"><path class="cls-2" d="M206,59.7c8.36-39.07,61.34-45.61,91.78-22.23,8.41,6.46,12.89,14,14.81,23.71,14.15-22.92,55.44,8.88,53.67,28.14,11.63-30,62.71,7.35,66.11,25.6,5.53-12.51,18.85-3.84,24.66,1.9,8.84,8.73,12.63,9.22,24.21,4.54,22.08-8.92,39.51-1.58,60.44,5.77,11.33,4,23.66,3.55,35,6.6-29.7.36-59.54-5.9-89.67-4-14.1.91-28.05,2-42-.4-6.35-1.12-9.75-2.25-15.65-1.3s-12.24,3.82-18.3,5.05c-15.48,3.15-31.2,2.06-44.58-5.85-13.61,13.2-39.67,21-59.29,23.17-16.85,1.86-34.09,4.58-51,2.79-18.11-1.92-34.71-8.76-52.08-13.22-13.67-3.51-28,5.65-43.34,2.85-7.47-1.36-14.88-4.61-20-9.64-16.84,9.68-39.2,9.57-59,7.14-17.13-2.1-30.78-12.93-47.69-15-12.06-1.5-22.08-.81-34,.92,8.12-5.17,21.44-6.88,31.29-8.48,10.33-1.67,24.37,2,31.82-5s8.2-20.09,14.14-28.22a45.75,45.75,0,0,1,30-17.82c11.48-1.47,24.45,3.61,30.83,12.33-.09-11.86,18.3-23.22,30-25.72,17.49-3.72,27.79,2.42,41.09,10.26Z"/><g class="cls-3"><g class="cls-4"><g class="cls-5"><polygon class="cls-6" points="531.94 23.22 13.58 0 4.89 154.71 523.25 177.92 531.94 23.22"/></g></g></g><g class="cls-7"><polygon class="cls-8" points="451.01 75.17 78.42 58.49 72.45 164.64 445.05 181.33 451.01 75.17"/></g></g></g></svg>