<svg xmlns="http://www.w3.org/2000/svg" xmlns:xlink="http://www.w3.org/1999/xlink" viewBox="0 0 750.62 222.13"><defs><style>.cls-1{fill:none;}.cls-2{fill:#e6f3ec;}.cls-3{opacity:0.46;}.cls-4{clip-path:url(#clip-path);}.cls-5{fill:url(#radial-gradient);}.cls-6{clip-path:url(#clip-path-2);}.cls-7{fill:url(#radial-gradient-2);}</style><clipPath id="clip-path"><path class="cls-1" d="M419.38,9.08a82.43,82.43,0,0,0-19,2.28C385,16.42,369.25,25.68,358.42,36.94c-5.37,7-8.82,14.94-10.83,24.41-.35-.71-.72-1.37-1.1-2-3.16,11-5.14,22.49-12.34,30.21-10.78,11.58-25.65.43-26.23-14.12-.48-12,8-22.3,18.74-26.55-15.58,1-34.21,15.32-43.9,30.92-6.81,17.25-6,44.86-28.66,48.1-16.43,2.35-47.91-26.31-22.1-32.42-7.25,1.71-18.05,7.16-27.33,14.3-8.35,8.58-14.43,17.71-15.9,24.95a23.23,23.23,0,0,0-1.57-3.56,16.92,16.92,0,0,0-.82,6.11c-4-2.67-12.43-2.58-16.82-1-8.14,3-13.11,10.44-22,12.52-8.69,2-17.45.44-26.24-1.13-8.28-1.49-16.58-3-24.85-1.45-9.42,1.74-18.8,4.49-28.35,6.92,16.24-.8,32.5-1.08,48.76.75,18.29,2.05,36.37,4.45,54.69,1.52,5.53-.88,9.38-1.82,13.56-1.87a22.15,22.15,0,0,1,5-.07c5.29.55,10.2,2.81,15,5.48a91,91,0,0,0,10.32,3.73c20,5.44,40.47,4.63,58.31-6.39,17,20.2,50.43,33,75.83,37.24,21.81,3.6,44.08,8.5,66.21,6.7,23.67-1.92,45.63-11.19,68.49-16.9a33.44,33.44,0,0,1,12-.62,18.54,18.54,0,0,1,2,.08,48.5,48.5,0,0,1,11,2.67c10,2.74,20.33,6.1,31.27,4.28,9.79-1.63,19.61-6.07,26.62-13.23,21.36,15.16,50.46,16.13,76.4,13.54,22.39-2.24,40.75-17.55,62.87-19.81a121.84,121.84,0,0,1,28.27.39C694.86,153.24,644.39,176.26,611,138c-15.33-17.6-15.53-54.92,15.5-46.42-8.12-7.93-19-10.8-30.5-10.51a41.65,41.65,0,0,0-22.43,15.54,23.39,23.39,0,0,0-2.35-10.83,118.25,118.25,0,0,0-32.57,16.89c-10.09,7.64-17.54,16.73-19.89,26.09-47.42-7.2-18.49-91.9,20-66.75a46.76,46.76,0,0,0-17.58-7.1c-14.51,0-25.7,6.95-39.2,15.26l4.34-5.64a74.4,74.4,0,0,0-1.81-8.45c-13,2.69-25,8.16-34.63,18-7.39,7.63-32.32,31.54-14,40.17-34.23.16-57.09-16.81-51.32-54.39a55.79,55.79,0,0,1,18.75-33.28C407.28,23.34,432.79,8,438,13.82a18,18,0,0,0-4.11-3.42,77.83,77.83,0,0,0-14.17-1.32Z"/></clipPath><radialGradient id="radial-gradient" cx="-1309.45" cy="5555.4" r="1" gradientTransform="matrix(599.81, 0, 0.21, -608.44, 784706.39, 3379714.94)" gradientUnits="userSpaceOnUse"><stop offset="0" stop-color="#e6f3ec"/><stop offset="0.49" stop-color="#d9efec"/><stop offset="0.84" stop-color="#c7e6da"/><stop offset="1" stop-color="#86d1d5"/></radialGradient><clipPath id="clip-path-2"><path class="cls-1" d="M170.33,155.76l.13,0-.13,0m82.31-6c-15.31,9.07-30.06,7-45,5-12.12-1.65-24.37-3.29-37.17,1,12.77-4.2,25.13,3.66,36.15,8.12,12.7,5.14,26.59,7.34,40.21,7.7,2.71.07,5.42,0,8.12,0a109.61,109.61,0,0,1,15.26.54c29.11,3.76,54.8,26.08,82.94,34.61,31.47,9.54,65.91,10.17,95.55-5.44,18.58-9.79,31.48-23,53.41-15.68,16.68,5.56,32.69,10.55,49.78,2.88,6.12-2.75,11.94-7.5,18-9.58,7.58,14.64,23.32,17.18,39.62,16.08v-7.56c-8.72-2.76-16.67-7.91-23.71-17-1.94-2.51-18.48-28.36-15.51-30.26-22.8,14.6-64.14,23-89.11,8.92-12.26-6.9-29.53-21.79-22.2-37.95-8.43,4.93-15.71,11.23-24.86,15.28-15.92,7-45.44,9.6-62.18,4.18-7.7-2.49-14.3-6.73-18.8-13.66-2.67-4.12-9.79-20.31-6.33-25-6.27,8.45-9.3,15.92-20.49,17.23-20.73,2.41-24.28-12-26.94-29.3-10.32,25.27-22.31,55.4-46.78,69.9"/></clipPath><radialGradient id="radial-gradient-2" cx="-1309.45" cy="5555.4" r="1" gradientTransform="matrix(524.25, 0, 0.18, -531.79, 685916.17, 2953967.74)" gradientUnits="userSpaceOnUse"><stop offset="0" stop-color="#e6f3ec"/><stop offset="0.49" stop-color="#d9efec"/><stop offset="0.86" stop-color="#c7e6da"/><stop offset="0.94" stop-color="#a5dbd7"/><stop offset="1" stop-color="#86d1d5"/></radialGradient></defs><title>cloud_r2</title><g id="Layer_2" data-name="Layer 2"><g id="Layer_1-2" data-name="Layer 1"><path class="cls-2" d="M486.32,64.55C477.63,6.38,409.07-6,368.18,27c-11.29,9.12-17.55,20-20.58,34.3-17.13-34.59-72.6,10.33-71.39,38.88-13.46-45-82,7.69-87.43,34.49-6.5-18.76-24.3-6.63-32.18,1.57-12,12.46-16.95,13-31.75,5.49-28.23-14.29-51.31-4.33-78.94,5.48-15,5.31-31,4-45.91,8,38.61,2,77.77-5.71,116.85-1.32,18.29,2.05,36.37,4.45,54.69,1.53,8.33-1.33,12.81-2.84,20.43-1.12s15.71,6.27,23.52,8.4c20,5.44,40.47,4.62,58.31-6.39,17,20.2,50.43,33,75.83,37.24,21.81,3.6,44.08,8.5,66.22,6.7,23.67-1.92,45.63-11.19,68.49-16.9,18-4.49,36,9.77,56.21,6.41,9.79-1.63,19.61-6.07,26.62-13.23,21.36,15.16,50.46,16.13,76.4,13.54,22.39-2.24,40.75-17.55,62.87-19.81,15.77-1.61,28.77-.08,44.18,3.09-10.27-8.06-27.51-11.26-40.23-14.11-13.34-3-31.81,1.68-41.11-9-9.12-10.49-9.55-30.11-16.81-42.42-8-13.53-22.28-24.92-38.07-27.86-14.84-2.76-32,4.11-40.79,16.66.78-17.52-22.51-35.24-37.61-39.52-22.54-6.38-36.28,2.17-54,13.09Z"/><g class="cls-3"><g class="cls-4"><rect class="cls-5" x="66.99" y="4" width="668.82" height="202.04" transform="translate(-1.23 4.81) rotate(-0.69)"/></g></g><g class="cls-6"><rect class="cls-7" x="169.55" y="77.23" width="440.79" height="142.28" transform="translate(-1.75 4.68) rotate(-0.69)"/></g></g></g></svg>