<svg xmlns="http://www.w3.org/2000/svg" xmlns:xlink="http://www.w3.org/1999/xlink" viewBox="0 0 820.14 398.64"><defs><style>.cls-1{fill:none;}.cls-2{fill:#e6f3ec;}.cls-3{opacity:0.46;}.cls-4{clip-path:url(#clip-path);}.cls-5{clip-path:url(#clip-path-2);}.cls-6{fill:url(#radial-gradient);}.cls-7{clip-path:url(#clip-path-3);}.cls-8{fill:url(#radial-gradient-2);}</style><clipPath id="clip-path"><rect class="cls-1" x="74.25" y="53.2" width="728.41" height="288.18"/></clipPath><clipPath id="clip-path-2"><path class="cls-1" d="M455,53.2a67.41,67.41,0,0,0-23.9,4.62c-16.57,8.5-33.37,23.3-44.72,40.81-5.58,10.75-9,22.92-10.81,37.22-.41-1-.85-2-1.29-3-3,16.66-4.68,34-12.21,46-11.29,18-28,2.14-29.21-19.64-1-17.88,7.83-33.89,19.36-40.9-17,2.39-36.71,25-46.64,48.92-6.72,26.26-4.75,67.59-29.29,73.77-17.84,4.49-53.38-36.63-25.47-47.3-7.84,3-19.41,11.79-29.24,23-8.76,13.35-15,27.38-16.33,38.32a40.72,40.72,0,0,0-1.86-5.24,34.62,34.62,0,0,0-.65,9.21c-4.47-3.76-13.67-3.13-18.4-.48-8.76,4.93-13.88,16.42-23.55,20.06-9.4,3.54-19,1.69-28.68-.16-9.1-1.74-18.22-3.49-27.19-.72-10.21,3.16-20.34,7.83-30.66,12,17.69-2.14,35.44-3.52,53.26-1.73,20.05,2,39.89,4.54,59.76-.91,6-1.65,10.16-3.28,14.73-3.59a17.66,17.66,0,0,1,5.49-.4c5.8.51,11.25,3.61,16.65,7.34a81.82,81.82,0,0,0,11.42,5c22,7,44.37,4.56,63.39-13,19.36,29.28,56.42,46.58,84.32,51.38,24,4.12,48.47,10.16,72.56,6.17,25.75-4.27,49.35-19.44,74.06-29.34a27.08,27.08,0,0,1,13-1.62,14.28,14.28,0,0,1,2.13,0,40.64,40.64,0,0,1,12.13,3.36c11,3.52,22.45,7.95,34.31,4.58A51.52,51.52,0,0,0,620,295.67c23.95,21.47,55.75,21.23,84,15.82,24.35-4.66,43.76-28.69,67.81-33.37A97.4,97.4,0,0,1,802.65,277c-17.57-9.44-36.7-9.22-55.77-9-28.92.34-57.68.67-80.58-32.72-17.46-25.48-19.22-81.4,15-70.48-9.19-11.41-21.14-15.08-33.73-14-9.65,4.42-18.42,13.07-23.85,24.62a45.76,45.76,0,0,0-3-16.09,127,127,0,0,0-34.85,27.22c-10.7,12-18.46,26.1-20.63,40.27-52.06-8-24-136.67,19-101.22a43.21,43.21,0,0,0-19.49-9.61C548.94,117,537,128,522.62,141.23l4.5-8.7c-.6-4.39-1.41-8.54-2.32-12.56-14.11,4.79-27,13.69-37.05,29.08-7.75,11.86-34,49.16-13.59,61-37.36,2.24-63-21.85-58.28-78.52,1.61-19.18,8.83-38.12,19.1-51,4.15-5.19,31.37-29.71,37.29-21.26a21.85,21.85,0,0,0-4.62-4.89,61.93,61.93,0,0,0-12-1.23Z"/></clipPath><radialGradient id="radial-gradient" cx="239.68" cy="5116.97" r="1" gradientTransform="matrix(654.43, -45.82, -32.9, -911.52, 11902.08, 4674658.9)" gradientUnits="userSpaceOnUse"><stop offset="0" stop-color="#e6f3ec"/><stop offset="0.49" stop-color="#d9efec"/><stop offset="0.84" stop-color="#c7e6da"/><stop offset="1" stop-color="#86d1d5"/></radialGradient><clipPath id="clip-path-3"><path class="cls-1" d="M275.56,273.91c-11.66,10.35-23.24,12.2-34.88,11.62v17.83a102.8,102.8,0,0,0,29.43,3.55c8.6-.14,17.18-1.57,25.55-.54,31.94,3.94,60.9,35.89,92,47,34.75,12.46,72.36,11.4,104.08-13.74,19.88-15.76,33.42-36.31,57.65-26.63,18.44,7.36,36.12,13.91,54.46,1.41,6.56-4.48,12.72-12,19.3-15.41,16.77,40.58,63.45,14.86,86.83,11.06-27.14,4.42-50.78,6.55-69.8-24.73-2.22-3.65-21.35-41.43-18.19-44.45-24.29,23.21-69.06,38.2-96.9,18.58-13.67-9.63-33.14-30.93-25.81-55.58-9,7.89-16.69,17.76-26.5,24.35-17.09,11.48-49.21,17-67.71,9.91-8.5-3.28-15.89-9.26-21.08-19.37-3.09-6-11.53-29.87-7.95-37.07-6.49,13-9.49,24.41-21.65,27-22.53,4.83-27-16.52-30.62-42.35-10.22,38.49-22.06,84.34-48.17,107.51"/></clipPath><radialGradient id="radial-gradient-2" cx="239.68" cy="5116.97" r="1" gradientTransform="matrix(571.97, -40.04, -28.75, -796.67, 10478.04, 4085704.46)" gradientUnits="userSpaceOnUse"><stop offset="0" stop-color="#e6f3ec"/><stop offset="0.49" stop-color="#d9efec"/><stop offset="0.86" stop-color="#c7e6da"/><stop offset="0.94" stop-color="#a5dbd7"/><stop offset="1" stop-color="#86d1d5"/></radialGradient></defs><title>cloud_l3</title><g id="Layer_2" data-name="Layer 2"><g id="Layer_1-2" data-name="Layer 1"><path class="cls-2" d="M527.12,132.53c-11.89-86.68-87.25-101.17-130.51-49.3-12,14.33-18.33,31-21.05,52.62C355.43,85,296.73,155.57,299.24,198.3c-16.55-66.64-89.17,16.33-94,56.81-7.87-27.74-26.8-8.51-35.07,4.23-12.56,19.37-18,20.45-34.43,10.08-31.41-19.77-56.19-3.49-85.95,12.83C33.67,291.09,16.14,290.14,0,296.91c42.23.78,84.66-13.12,127.51-8.82,20,2,39.89,4.54,59.76-.91,9-2.48,13.87-5,22.25-2.88s17.41,8.48,26,11.21c22,7,44.38,4.56,63.39-13,19.36,29.28,56.42,46.58,84.32,51.38,24,4.12,48.47,10.16,72.56,6.16,25.75-4.27,49.35-19.45,74.06-29.34,19.43-7.78,39.75,12.53,61.63,6.32A51.52,51.52,0,0,0,620,295.67c23.95,21.47,55.75,21.23,84,15.82,24.35-4.66,43.76-28.69,67.82-33.37,17.15-3.33,31.4-1.8,48.36,2-11.54-11.47-30.49-15.27-44.5-18.8-14.69-3.71-34.66,4.38-45.25-11.11-10.39-15.2-11.67-44.57-20.11-62.6-9.28-19.81-25.36-36.06-42.7-39.53-16.32-3.26-34.76,8-43.84,27.36.12-26.31-26-51.51-42.7-57-24.87-8.25-39.51,5.38-58.42,22.78Z"/><g class="cls-3"><g class="cls-4"><g class="cls-5"><polygon class="cls-6" points="63.69 51.61 800.82 0 813.21 343.33 76.08 394.93 63.69 51.61"/></g></g></g><g class="cls-7"><polygon class="cls-8" points="233.5 166.9 708.77 133.63 717.13 365.36 241.86 398.63 233.5 166.9"/></g></g></g></svg>