<svg xmlns="http://www.w3.org/2000/svg" xmlns:xlink="http://www.w3.org/1999/xlink" viewBox="0 0 634.46 193.02"><defs><style>.cls-1{fill:none;}.cls-2{isolation:isolate;}.cls-3{fill:#e6f3ec;}.cls-4{opacity:0.46;}.cls-5{clip-path:url(#clip-path);}.cls-6{clip-path:url(#clip-path-2);}.cls-7{fill:url(#radial-gradient);}.cls-8{mix-blend-mode:screen;}.cls-9{clip-path:url(#clip-path-3);}.cls-10{clip-path:url(#clip-path-4);}.cls-11{fill:url(#radial-gradient-2);}.cls-12{clip-path:url(#clip-path-5);}.cls-13{clip-path:url(#clip-path-6);}.cls-14{fill:url(#radial-gradient-3);}.cls-15{clip-path:url(#clip-path-7);}.cls-16{clip-path:url(#clip-path-8);}.cls-17{fill:url(#radial-gradient-4);}</style><clipPath id="clip-path"><rect class="cls-1" x="57.55" y="8.34" width="563.45" height="176.05"/></clipPath><clipPath id="clip-path-2"><path class="cls-1" d="M354.33,8.34a64.5,64.5,0,0,0-15.93,2.09c-13,4.66-26.3,13.17-35.45,23.52-4.54,6.4-7.45,13.73-9.15,22.43-.3-.65-.61-1.26-.93-1.85-2.67,10.1-4.35,20.66-10.43,27.76-9.11,10.64-21.68.4-22.17-13-.4-11,6.78-20.49,15.84-24.4C263,45.81,247.21,59,239,73.32c-5.75,15.85-5.11,41.22-24.22,44.2-13.89,2.17-40.49-24.18-18.68-29.79-6.12,1.57-15.26,6.58-23.1,13.14-7.06,7.89-12.2,16.27-13.44,22.92a21.79,21.79,0,0,0-1.33-3.27,16.86,16.86,0,0,0-.7,5.62c-3.38-2.45-10.51-2.37-14.21-.9-6.88,2.73-11.09,9.6-18.64,11.5-7.34,1.86-14.75.41-22.18-1-7-1.36-14-2.73-21-1.33-8,1.6-15.9,4.13-24,6.36,13.73-.73,27.48-1,41.22.69,15.46,1.89,30.74,4.09,46.22,1.4,4.67-.81,7.93-1.67,11.47-1.71a17.25,17.25,0,0,1,4.25-.06c4.47.5,8.62,2.58,12.72,5a73.31,73.31,0,0,0,8.72,3.42c16.87,5,34.21,4.25,49.29-5.87,14.34,18.56,42.63,30.37,64.09,34.22,18.44,3.31,37.26,7.81,56,6.15,20-1.77,38.57-10.28,57.89-15.53a26.08,26.08,0,0,1,10.12-.57,14.05,14.05,0,0,1,1.65.07,38.41,38.41,0,0,1,9.31,2.46c8.47,2.52,17.19,5.6,26.43,3.93a40.06,40.06,0,0,0,22.5-12.16C497.45,176.16,522,177.06,544,174.67c18.93-2.06,34.45-16.13,53.15-18.2a94.9,94.9,0,0,1,23.89.36c-33.67-16-76.34,5.15-104.52-30-13-16.17-13.12-50.46,13.1-42.66-6.86-7.29-16-9.92-25.78-9.66a35.35,35.35,0,0,0-19,14.29,23.09,23.09,0,0,0-2-10,97.38,97.38,0,0,0-27.53,15.52c-8.53,7-14.83,15.37-16.81,24-40.08-6.62-15.63-84.45,16.88-61.34a37.87,37.87,0,0,0-14.86-6.52c-12.27,0-21.73,6.39-33.14,14l3.67-5.18a73.3,73.3,0,0,0-1.53-7.77c-11,2.47-21.17,7.5-29.27,16.58-6.24,7-27.32,29-11.81,36.92-28.93.15-48.26-15.44-43.38-50a52.52,52.52,0,0,1,15.85-30.58c3.32-3,24.89-17.16,29.29-11.79a15.68,15.68,0,0,0-3.47-3.14,60.74,60.74,0,0,0-11.88-1.21Z"/></clipPath><radialGradient id="radial-gradient" cx="-1149.32" cy="4260.55" r="1" gradientTransform="matrix(506.95, -6.6, -5.98, -559.1, 608490.89, 2374111.48)" gradientUnits="userSpaceOnUse"><stop offset="0" stop-color="#e6f3ec"/><stop offset="0.49" stop-color="#d9efec"/><stop offset="0.84" stop-color="#c7e6da"/><stop offset="1" stop-color="#86d1d5"/></radialGradient><clipPath id="clip-path-3"><rect class="cls-1" x="324.14" y="8.34" width="86.9" height="96.97"/></clipPath><clipPath id="clip-path-4"><path class="cls-1" d="M354.41,8.34l-1.26,0c-11.52.26-18.82,3-29,8.74,4.85-2.75,10.52-3.29,16-2.81,13.76,1.2,27,8.76,35.78,20.48,2.45,3.26,6.88,9.88,5.69,14.53-.95,3.71-6.22,7.8-8.46,11a90.53,90.53,0,0,0-16,45c4.95-18.42,25.15-37.87,42.77-38.47,4.67-.16,3.38.17,6.64-3.76A31.1,31.1,0,0,1,411,59.23c-2.85-20.58-14.58-37.76-32.1-45.73a58.81,58.81,0,0,0-24.2-5.15Z"/></clipPath><radialGradient id="radial-gradient-2" cx="-1149.32" cy="4260.55" r="1" gradientTransform="matrix(108.22, 0, 0, -119.35, 124732.08, 508526.5)" gradientUnits="userSpaceOnUse"><stop offset="0" stop-color="#e6f3ec"/><stop offset="1" stop-color="#010101"/></radialGradient><clipPath id="clip-path-5"><rect class="cls-1" x="420.41" y="52.14" width="64.86" height="68.26"/></clipPath><clipPath id="clip-path-6"><path class="cls-1" d="M485.28,87.35a8.54,8.54,0,0,0-.14-1.18c.05.39.1.78.14,1.18m-41-35.21c-4.89,0-9.57,1-13.09,3.31-12.24,8.1-5.42,23-10.75,32.74,4.62-8.48,10.95-16.47,19.48-19.53s19.44.51,22.82,9.67c-6.54.8-12.41,11.6-16,17.1a72.86,72.86,0,0,0-10.58,25c1.14-5.71,8-12.89,11.5-17a100.41,100.41,0,0,1,15.38-14.74c3.84-2.92,20.29-11.65,22.08-2.46-1.9-14.14-10.38-22.87-21-29a42.08,42.08,0,0,0-19.81-5Z"/></clipPath><radialGradient id="radial-gradient-3" cx="-1149.32" cy="4260.55" r="1" gradientTransform="matrix(-77.75, 0.69, -0.63, -85.75, -86213.76, 366197.03)" xlink:href="#radial-gradient-2"/><clipPath id="clip-path-7"><rect class="cls-1" x="493.03" y="72.94" width="132.13" height="83.87"/></clipPath><clipPath id="clip-path-8"><path class="cls-1" d="M493,80.05c6.39-2.81,17.31-.77,21,3.18,6.6,7.11,5.69,20.57,9.13,29.41,4.37,11.21,11.3,21.71,21.52,27.07,11.67,6.12,25.26,4.58,38.17,5.34a105.42,105.42,0,0,1,42.35,11.76,84.39,84.39,0,0,0-24.88-10.51c-8.56-2-19.57-.11-27.79-3.36a11.49,11.49,0,0,1-6.7-4.8l-.08-.09c-7.71-9.64-8.07-27.67-14.21-39a55.64,55.64,0,0,0-5.13-7.76c-.72-.86-1.44-1.73-2.21-2.54C536.7,81,525,74.19,513.66,72.94A34.8,34.8,0,0,0,493,80.05"/></clipPath><radialGradient id="radial-gradient-4" cx="-1149.32" cy="4260.55" r="1" gradientTransform="matrix(97.4, 0, 0, -107.41, 112517.12, 457725.81)" xlink:href="#radial-gradient-2"/></defs><title>hand_cloud_r</title><g class="cls-2"><g id="Layer_2" data-name="Layer 2"><g id="Layer_1-2" data-name="Layer 1"><path class="cls-3" d="M411.06,59.32c-7.34-53.46-65.29-64.8-99.85-34.46-9.55,8.38-14.84,18.41-17.4,31.52-14.47-31.78-61.37,9.49-60.34,35.73-11.37-41.34-69.29,7.07-73.9,31.7-5.49-17.24-20.54-6.09-27.2,1.44-10.12,11.45-14.32,11.93-26.84,5-23.86-13.14-43.37-4-66.73,5C26.16,140.2,12.62,139,0,142.66c32.64,1.86,65.74-5.25,98.77-1.22,15.46,1.89,30.74,4.09,46.22,1.4,7-1.22,10.83-2.61,17.27-1s13.28,5.76,19.88,7.72c16.87,5,34.21,4.25,49.29-5.87,14.34,18.56,42.63,30.36,64.1,34.22,18.44,3.31,37.26,7.81,56,6.16,20-1.77,38.57-10.29,57.89-15.53,15.19-4.13,30.47,9,47.51,5.89a40.05,40.05,0,0,0,22.5-12.15C497.45,176.16,522,177.06,544,174.67c18.93-2.06,34.45-16.13,53.15-18.2,13.33-1.48,24.32-.07,37.34,2.84-8.68-7.4-23.25-10.35-34-13-11.27-2.75-26.89,1.54-34.75-8.29-7.71-9.64-8.07-27.67-14.21-39-6.76-12.43-18.84-22.9-32.17-25.6-12.55-2.53-27,3.77-34.48,15.31.66-16.1-19-32.39-31.79-36.32-19.05-5.87-30.66,2-45.66,12Z"/><g class="cls-4"><g class="cls-5"><g class="cls-6"><polygon class="cls-7" points="55.65 7.36 620.92 0 622.91 185.66 57.63 193.02 55.65 7.36"/></g></g></g><g class="cls-8"><g class="cls-9"><g class="cls-10"><rect class="cls-11" x="324.15" y="8.34" width="86.9" height="96.96"/></g></g></g><g class="cls-8"><g class="cls-12"><g class="cls-13"><polygon class="cls-14" points="485.27 51.55 418.42 52.14 418.93 121 485.78 120.4 485.27 51.55"/></g></g></g><g class="cls-8"><g class="cls-15"><g class="cls-16"><rect class="cls-17" x="493.03" y="72.94" width="132.13" height="83.87"/></g></g></g></g></g></g></svg>