<svg xmlns="http://www.w3.org/2000/svg" xmlns:xlink="http://www.w3.org/1999/xlink" viewBox="0 0 194.62 252.06" xmlns:v="https://vecta.io/nano"><style><![CDATA[.D{isolation:isolate}.M{mix-blend-mode:multiply}.BC,.CF,.m,.q,.AV,.Af{mix-blend-mode:screen}.CJ{fill:none}.CK{opacity:.71}.CL{fill:#cd6b4a}.CM{fill:#554847}.CN{opacity:.25}.CO{opacity:.75}.CP{color-interpolation-filters:sRGB}]]></style><defs><clipPath id="A"><path d="M37.76 15.9h133.93v128.41H37.76z" class="CJ"/></clipPath><clipPath id="B"><path d="M37.41 15.68h134.35v128.69H37.41z" class="CJ"/></clipPath><clipPath id="C"><path d="M37.76 15.9h134.05v128H37.76z" class="CJ"/></clipPath><clipPath id="D"><path d="M162.33 100.18l.08-.13-.08.13m1.19-3.46v.1l-.18.29.18-.38m-61-80.45a48.84 48.84 0 0 0-25.28 7 79.71 79.71 0 0 0-22.39 20.04 77.75 77.75 0 0 0-13.2 23.62A64.51 64.51 0 0 0 38.48 82a40 40 0 0 0-.72 7.34v.77a54 54 0 0 0 .8 8.57 57.51 57.51 0 0 0 1.36 5.95q.41 1.7.92 3.37a56.64 56.64 0 0 0 7.57 18.59 37.55 37.55 0 0 0 8.48 9.54c6.41 4.94 14.77 7.16 23 7.6a89.76 89.76 0 0 0 13.77-.32c0 .16.05.31.07.47l1.87-.28a.9.9 0 0 0 .36-.12h.19c.07 0 0-.14 0-.21a.69.69 0 0 0 0-.2l1.1-.14a67.37 67.37 0 0 0 20.75-5.54c.41-.17.83-.31 1.24-.49l-.09.22c.94-.69 2.7-1 3.47-1.65 0 0 .06-.09.1-.13h0c-.24.38-.46.77-.71 1.14.26-.38.49-.77.74-1.16a100 100 0 0 0 22.49-14.7 69.07 69.07 0 0 0 18-23.21l.3-.43a8.41 8.41 0 0 1-1.08 3.07l2.07-3.37a28.82 28.82 0 0 0 2.35-4.92 31.52 31.52 0 0 0 1.38-3 30.26 30.26 0 0 0 2.31-6.21 23.26 23.26 0 0 0 1.15-8.57c.09-1.58.13-3.16.13-4.74V68l-.05-3.7a16.19 16.19 0 0 0-.66-5.07c-.81-2.27-1.89-5.27-3-8a53.25 53.25 0 0 0-8.73-15.56 43.59 43.59 0 0 0-9.54-8.63c-1.24-.89-2.54-1.74-3.93-2.56a59.65 59.65 0 0 0-24.61-7.83 80.64 80.64 0 0 0-11.22-.78 79.96 79.96 0 0 0-7.61.36" class="CJ"/></clipPath><radialGradient id="E" cx="-1644.3" cy="5204.04" r="1" gradientTransform="translate(-175623.9 527439.04) rotate(180) scale(106.88 101.34)" xlink:href="#Bm"><stop offset="0" stop-color="#010101"/><stop offset=".55" stop-color="#010101"/><stop offset=".78" stop-color="#878787"/><stop offset="1" stop-color="#fff"/></radialGradient><clipPath id="F"><path d="M22.99 129.93h148.65v90.32H22.99z" class="CJ"/></clipPath><clipPath id="G"><path d="M61.37 155.62l1 2-2.09 1.42 2.15 4.35L23 188.17l1.1 2.56h0l1.42 4.29c-.1 1.65 1.75 3.29 1.42 5 3.24-.29 7.11 1.53 10.61 3.43a141.82 141.82 0 0 1 3 1.69c.94.54 1.64.92 2.36 1.28a7.39 7.39 0 0 0 2.54.82 4.9 4.9 0 0 0 1 0 9.73 9.73 0 0 0 1.8-.39 8.22 8.22 0 0 1 3.1-.4 6.85 6.85 0 0 1 2.07.56c2.13.9 4.35 2.64 6.11 3.54q2.33 1.19 4.7 2.3a145.1 145.1 0 0 0 14.6 5.85 35.41 35.41 0 0 0 4.09 1.17 16.41 16.41 0 0 0 2.09.29 11.76 11.76 0 0 0 2.1 0 14 14 0 0 0 2.79-.65c.46-.15.9-.31 1.35-.48l1.34-.53c3.82-1.51 7.77-2.61 11.26-4.68a53.58 53.58 0 0 1 12.8-5.23c3.7-1 7.89-1.64 11.3 0 .05.05.12.08.1 0s.26.1.38.17c-.07 0-.11-.24-.15-.5a.91.91 0 0 0 .28.17c.74.24 2.26-2.24 2.8-3 .77-1 1.38-2.11 2.17-3.1 2.87-3.58 8.55-3.36 12.8-5.33 3.63-1.68 6.14-4.93 8.27-8.19a88.45 88.45 0 0 0 7.84-14.69s.07-.08.09-.13c2.38-4.14 3.34-10.16 3.39-14.8a17.33 17.33 0 0 0 2.71.36H170h.44a9 9 0 0 0 .92 0c0-.35-.12-2.68-.21-5.25 0 0 .08-3.8.16-3.79l.32-8-13.44-1.06-.48 6.07-48.62-5.61 1.12-8.49-10.88-3.49z" class="CJ"/></clipPath><filter  x="22.99" y="-10150.04" width="148.65" height="32766" filterUnits="userSpaceOnUse" class="CP"><feFlood flood-color="#fff"/><feBlend in="SourceGraphic"/></filter><radialGradient id="I" cx="-1644.3" cy="5204.04" r="1" gradientTransform="translate(-281741.85 845949.77) rotate(180) scale(171.42 162.54)" xlink:href="#Bm"><stop offset="0" stop-color="#231f20"/><stop offset=".58" stop-color="#231f20"/><stop offset=".77" stop-color="#8b898a"/><stop offset="1" stop-color="#fff"/></radialGradient><clipPath id="J"><path d="M163.06 142.9l2.31-82.9 3.99 16.38-5 68.2-1.3-1.68z" class="CJ"/></clipPath><linearGradient id="K" x1="-1644.3" y1="5204.03" x2="-1643.3" y2="5204.03" gradientTransform="matrix(-4.87, 72.25, -90.01, -5.12, 460590.61, 145517.21)" xlink:href="#Bm"><stop offset="0" stop-color="#695c5b"/><stop offset=".58" stop-color="#8ca4b3"/><stop offset="1" stop-color="#71ccd6"/></linearGradient><clipPath id="L"><path d="M152.66 151.5l.9-82.1 4.22 16.18-3.92 67.54-1.2-1.62z" class="CJ"/></clipPath><linearGradient id="M" y1="5204.04" y2="5204.04" gradientTransform="matrix(-0.87, 71.72, -75.64, -0.83, 392345.09, 122322.4)" xlink:href="#K"/><clipPath id="N"><path d="M51.68 181.5l-1.91-82.91 4.45 16.18-1.27 68.34-1.27-1.61z" class="CJ"/></clipPath><linearGradient id="O" x1="-1644.3" y1="5204.04" x2="-1643.3" y2="5204.04" gradientTransform="matrix(-1.16, 95.31, -100.52, -1.1, 521261.27, 162566.12)" xlink:href="#Bm"><stop offset="0" stop-color="#695c5b"/><stop offset=".46" stop-color="#8ca4b3"/><stop offset=".82" stop-color="#71ccd6"/></linearGradient><clipPath id="P"><path d="M39.95 185.14l.73-82.1 3.42 16.17-3.18 67.54-.97-1.61z" class="CJ"/></clipPath><linearGradient id="Q" x1="-1644.3" y1="5204.04" x2="-1643.3" y2="5204.04" gradientTransform="matrix(-1.06, 86.91, -91.65, -1, 475276.26, 148240.32)" xlink:href="#Bm"><stop offset="0" stop-color="#695c5b"/><stop offset=".54" stop-color="#8ca4b3"/><stop offset=".87" stop-color="#71ccd6"/></linearGradient><clipPath id="R"><path d="M99.14 19.15A69.82 69.82 0 0 0 83 21.69C73.43 24.51 65.87 31 59.56 38.27c-12.72 14.61-19.5 33.56-20.24 52.39-.49 12.49 2.22 25.27 9.08 35.94a37.65 37.65 0 0 0 8.49 9.54c6.4 4.94 14.77 7.16 23 7.6 24.84 1.33 47.2-7.56 65.32-23.14 18.84-16.19 26.26-37.1 23.38-61-2.07-17.19-14.38-31.5-31.73-37-6.91-2.19-14.23-2.86-21.5-3.28-3.53-.21-7.09-.35-10.66-.35-1.86 0-3.72 0-5.57.13" class="CJ"/></clipPath><radialGradient id="S" cx="-1644.3" cy="5204.04" r="1" gradientTransform="translate(-211587.18 635509.22) rotate(180) scale(128.77 122.1)" xlink:href="#Bm"><stop offset="0" stop-color="#f6ede1"/><stop offset=".09" stop-color="#f3e1cc"/><stop offset=".48" stop-color="#e8ae78"/><stop offset=".66" stop-color="#e49a56"/><stop offset=".72" stop-color="#df8f52"/><stop offset=".82" stop-color="#d07149"/><stop offset=".96" stop-color="#b94139"/><stop offset="1" stop-color="#b23234"/></radialGradient><clipPath id="T"><path d="M88.54 23.1h80.64v113.51H88.54z" class="CJ"/></clipPath><clipPath id="U"><path d="M88.54 23.1h80.63v113.51H88.54z" class="CJ"/></clipPath><clipPath id="V"><path d="M37.75 28.45h60.66V144.9H37.75z" class="CJ"/></clipPath><clipPath id="W"><path d="M37.75 28.45h60.66v116.46H37.75z" class="CJ"/></clipPath><clipPath id="X"><path d="M79,27.86c-17.5,9.67-31.05,25.6-37.31,43.86A54.13,54.13,0,0,0,38.5,84.48a42.72,42.72,0,0,0-.39,6.59c.18,2.38,1.25,4.65,1.46,7a18.51,18.51,0,0,1,2.09-10c3.53-7,10.37-12.69,18.91-12.52,11.95.24,22.87,9.59,25.85,20.48,1.72,6.28,1.8,13.1,2.45,19.55.82,8.14-.15,17,2.19,24.89-.58-3.38-.11-6.83.07-10.26.36-6.74-.42-13.48-.73-20.22-.34-7.34-.37-14.82,1.29-22,1.77-7.69,6.23-13.09,13.28-17.32,10.56-6.33,22.51.39,28.27,8.88a34.9,34.9,0,0,1,5.61,14.88,18.61,18.61,0,0,1,8.82-8.92,17.23,17.23,0,0,1,12.37-1.33c3.7,1,5.76,5.47,4.91,8.94a25,25,0,0,1-1.48,4,25.72,25.72,0,0,1,2.78-4.66,6,6,0,0,0,.7-1.07c1.21-2.67,2.24-5.4,3.35-8.18,1.79-4.49,1.57-9.4,1-14.07a55.78,55.78,0,0,0-11.86-28.58,45.78,45.78,0,0,0-13.1-10.85c-10.42-5.93-23.52-9-36.3-9-11.27,0-22.3,2.36-31,7.18" class="CJ"/></clipPath><linearGradient id="Y" x1="-1644.3" y1="5204.04" x2="-1643.3" y2="5204.04" gradientTransform="matrix(-232.85, -36.9, 38.91, -220.78, -585147.52, 1088397.99)" xlink:href="#Bm"><stop offset="0" stop-color="#f05f89"/><stop offset=".54" stop-color="#a82d5d"/><stop offset=".82" stop-color="#7d3d55"/></linearGradient><clipPath id="Z"><path d="M79 23.08c-17.5 9.67-31.05 25.6-37.31 43.86a64.58 64.58 0 0 0-3.37 17.19c-.3 5.12-.7 11 1.14 15.88a30.92 30.92 0 0 1 1.46-14.21c3-8.13 10.08-15.24 19.66-15A28.36 28.36 0 0 1 87.4 91a51.21 51.21 0 0 1 1.76 11.28c.2 2.71 1.25 36 1.42 36a1.08 1.08 0 0 1 .62.16 1.06 1.06 0 0 0 .62.16l-1-34.13a84.49 84.49 0 0 1 1.87-19.23A37.59 37.59 0 0 1 95 78.25a24.9 24.9 0 0 1 6.73-9.07 24.41 24.41 0 0 1 14.65-5.69c6-.17 13.05 1.74 16.28 6.78a56.81 56.81 0 0 1 7.66 21c2.77-3.33 3.6-6.69 7.73-9.14 3.8-2.26 9.1-3.23 13.18-1.06a10.08 10.08 0 0 1 3.95 13.65c5.6-10.73 7.58-18.76 6.05-30.39a55.77 55.77 0 0 0-11.84-28.63 45.83 45.83 0 0 0-13.1-10.85c-10.42-5.92-23.52-9-36.3-9-11.27 0-22.3 2.36-31 7.18" class="CJ"/></clipPath><radialGradient id="a" cx="-1644.3" cy="5204.04" r="1" gradientTransform="translate(-218004.12 654658.77) rotate(180) scale(132.67 125.79)" xlink:href="#Bm"><stop offset="0" stop-color="#f9a886"/><stop offset=".04" stop-color="#f89e86"/><stop offset=".26" stop-color="#f27188"/><stop offset=".38" stop-color="#f05f89"/><stop offset="1" stop-color="#7c1646"/></radialGradient><clipPath id="b"><path d="M38.18 16.24h83.26v127.13H38.18z" class="CJ"/></clipPath><clipPath id="c"><path d="M38.18 16.24h83.25v127.13H38.18z" class="CJ"/></clipPath><clipPath id="d"><path d="M75.78 16.42h96.08V97.9H75.78z" class="CJ"/></clipPath><clipPath id="e"><path d="M162.84 97.9a17.48 17.48 0 0 0 2.21-3.56l-2.21 3.56M115.5 16.43a54.41 54.41 0 0 0-9 .83c-5.52 1-11.41 1.6-16.67 3.78a36.72 36.72 0 0 0-8.4 4.84c-1.22.94-4.46 5.35-5.7 5.58 12.09-2.2 24.55 2.06 35.06 8.13C121 45.48 130.27 53.34 136 63.31A43 43 0 0 1 141 77a49.8 49.8 0 0 1 .62 7.2c.07 2.05-.27 4-.27 6.1 1.68-3.18 3.53-6.53 6.75-8.33a17.75 17.75 0 0 1 2.65-1.14c3.28-1.19 6.84-1.55 10 .25a11.92 11.92 0 0 1 5.43 6.69 7.51 7.51 0 0 1-.94 6.33l-.13.28c2.41-3.91 4.62-7.86 5.61-12.38a53.44 53.44 0 0 0-3.99-34c-4.67-10-10.81-17.64-20.81-23.51a59.68 59.68 0 0 0-29.28-8.1z" class="CJ"/></clipPath><radialGradient id="f" cx="-1644.3" cy="5204.04" r="1" gradientTransform="translate(-272221.23 817167.88) rotate(180) scale(165.59 157)" xlink:href="#Bm"><stop offset="0" stop-color="#010101"/><stop offset=".51" stop-color="#010101"/><stop offset=".56" stop-color="#111008"/><stop offset=".65" stop-color="#3b391a"/><stop offset=".79" stop-color="#7f7a36"/><stop offset=".95" stop-color="#dbd25d"/><stop offset="1" stop-color="#f9ef6a"/></radialGradient><clipPath id="g"><path d="M143.33 76.08h25.07v20.89h-25.07z" class="CJ"/></clipPath><clipPath id="h"><path d="M158,76.08a15.81,15.81,0,0,0-5.46,1c-4.27,1.62-6.31,6.11-9.26,9.45,2.68-3,8.27-7.71,12.9-6.75a16.64,16.64,0,0,1,5.94,2.3,9.05,9.05,0,0,1,1.38,1.14,9.29,9.29,0,0,1,2.59,5.11,7,7,0,0,1-.1,2.89,11.21,11.21,0,0,1-.86,2L163.34,97c2-4,5-7.11,5.05-11.36v-.08a10,10,0,0,0-.48-3c-1.4-4.48-5.4-6.48-9.75-6.5Z" class="CJ"/></clipPath><radialGradient id="i" cx="-1644.3" cy="5204.04" r="1" gradientTransform="translate(-31437.44 94924.62) rotate(180) scale(19.22 18.23)" xlink:href="#Bm"><stop offset="0" stop-color="#ecab48"/><stop offset=".32" stop-color="#a57732"/><stop offset="1" stop-color="#010101"/></radialGradient><clipPath id="j"><path d="M89.8 58.93h49.79v59.6H89.8z" class="CJ"/></clipPath><clipPath id="k"><path d="M111.49,59.18c-17.2,2.68-22.35,22-21.62,35.87a197.62,197.62,0,0,0,2.66,23.48,236.46,236.46,0,0,1-.78-24.31,43,43,0,0,1,1-9.48,39.67,39.67,0,0,1,4.24-9.82,26.24,26.24,0,0,1,10-9.43c4.48-2.49,9.27-2.3,14.22-1.56,8.33,1.24,13.51,8,16.6,15.09a48.61,48.61,0,0,1,1.81,4.88c-2.15-6.87-4-13.9-9.54-19a22.78,22.78,0,0,0-15.3-5.94,21.19,21.19,0,0,0-3.26.25" class="CJ"/></clipPath><radialGradient id="l" gradientTransform="translate(-81735.27 245697.37) rotate(180) scale(49.78 47.2)" xlink:href="#i"/><mask id="m" x="37.41" y="15.68" width="134.4" height="128.69" maskUnits="userSpaceOnUse"><path d="M37.76 15.91h133.93v128.41H37.76z"/><g clip-path="url(#A)"><g class="D"><g clip-path="url(#B)"><g class="CO"><g clip-path="url(#C)"><g clip-path="url(#D)"><path d="M37.76 15.91h134.05V144H37.76z" fill="url(#E)"/></g></g></g></g></g></g></mask><clipPath id="n"><path d="M37.76 15.9h133.93v128.41H37.76z" class="CJ"/></clipPath><clipPath id="o"><path d="M163.51 96.82l-.18.29a.8.8 0 0 1 .18-.29m-61-80.55a48.84 48.84 0 0 0-25.28 7 79.64 79.64 0 0 0-22.38 20.05 77.69 77.69 0 0 0-13.2 23.62A64.71 64.71 0 0 0 38.48 82a40 40 0 0 0-.72 7.39v.64a54 54 0 0 0 .8 8.65 57 57 0 0 0 1.36 5.95q.41 1.7.92 3.37a56.68 56.68 0 0 0 7.57 18.59 37.56 37.56 0 0 0 8.49 9.54c6.41 4.94 14.77 7.16 23 7.6a89.39 89.39 0 0 0 13.77-.32c0 .16.05.31.07.47l1.88-.28a.91.91 0 0 0 .36-.12h.19v-.21a.63.63 0 0 0 0-.2l1.1-.14a67.35 67.35 0 0 0 20.73-5.54c.41-.17.83-.31 1.24-.49l-.09.22c.94-.69 2.7-1 3.47-1.65a1.33 1.33 0 0 1 .14-.15c-.24.38-.46.77-.71 1.14.26-.38.49-.77.74-1.16a86.58 86.58 0 0 0 8.38-4.47c-.42 3.28-1 8.24-1.39 13.4a5.59 5.59 0 0 0 1.18.05c.45 0 1.88-14 2-14.56a99.58 99.58 0 0 0 12.35-9.12 72.91 72.91 0 0 0 13.19-14.73c1.71-2.56 3-5.37 4.69-7.91a49.57 49.57 0 0 0 5.1-9.25 30.2 30.2 0 0 0 2.31-6.21 22.11 22.11 0 0 0 1.17-7.26v-.47-.83c-.11-3.5.06-6.84-.38-10.34a54.56 54.56 0 0 0-2.22-9.92 56.09 56.09 0 0 0-9.68-18 43.56 43.56 0 0 0-9.54-8.63c-1.24-.89-2.54-1.74-3.93-2.56a59.7 59.7 0 0 0-24.61-7.84 81 81 0 0 0-11.21-.78 79.96 79.96 0 0 0-7.61.36" class="CJ"/></clipPath><radialGradient id="p" cx="-1644.3" cy="5204.04" r="1" gradientTransform="translate(-175916.85 528318) rotate(180) scale(107.06 101.51)" xlink:href="#Bm"><stop offset="0" stop-color="#87bfe8"/><stop offset=".54" stop-color="#87bfe8"/><stop offset=".58" stop-color="#7ebee5"/><stop offset="1" stop-color="#1fb8c5"/></radialGradient><clipPath id="q"><path d="M13.6 205.46l.96-1.82 15.68-10.01.32 5.77-16.96 6.06h0z" class="CJ"/></clipPath><linearGradient id="r" x1="-1644.3" y1="5204.04" x2="-1643.3" y2="5204.04" gradientTransform="matrix(28.17, -10.42, 10.99, 26.71, -10880.31, -155920.96)" xlink:href="#Bm"><stop offset="0" stop-color="#784b45"/><stop offset="0" stop-color="#78909f"/><stop offset="1" stop-color="#554847"/></linearGradient><clipPath id="s"><path d="M44.56 206.52a.52.52 0 0 0 0 .39l1.69 7.14a2.11 2.11 0 0 1 .05 1.15.84.84 0 0 1-.91.58c0 .28-.78.78-.85.65a4.32 4.32 0 0 1 .78 1.72 1.83 1.83 0 0 1-.55 1l-.19.25-.23.38-.37.62a6.07 6.07 0 0 0-.24.57c-.07.16-.16.32-.21.49a7 7 0 0 0-.27 1.15 13.47 13.47 0 0 0-.15 1.69 6.92 6.92 0 0 0 .08 1.4v.34a2.17 2.17 0 0 0 .47 1 .68.68 0 0 0 .16.19l.14.13a3.24 3.24 0 0 0 1.66.87c.08 0 .15.06.23.08h.16.35a10.31 10.31 0 0 0 1 0h.25a4 4 0 0 0 1-.07.52.52 0 0 0 .16-.06l.25-.12a2.72 2.72 0 0 1 .55-.15l.57-.11.55-.1a6.58 6.58 0 0 0 .68-.17l.22-.06a2.71 2.71 0 0 0 .47-.24.84.84 0 0 0 .17-.1l.13-.07a17.92 17.92 0 0 0 1.92-1.58 4.12 4.12 0 0 0 .79-.87 1.14 1.14 0 0 0 .17-.32 1 1 0 0 0 0-.32 2.41 2.41 0 0 0-.2-.65l-.25-.67a4.1 4.1 0 0 0-.17-.41 7.66 7.66 0 0 0-.52-1 1.54 1.54 0 0 0-.11-.18 7.07 7.07 0 0 0-.43-.62 17.22 17.22 0 0 0-2.72-2.41.54.54 0 0 1-.17-.21.53.53 0 0 1 0-.23l.08-2.73-1.53.3c-.71.15-1.24.29-1.83-.29a3.78 3.78 0 0 1-.84-1.72l-1.64-6.86a.15.15 0 0 0-.13-.07.25.25 0 0 0-.21.12" class="CJ"/></clipPath><radialGradient id="t" cx="-1644.3" cy="5204.04" r="1" gradientTransform="translate(-34122.24 102738.6) rotate(180) scale(20.78 19.7)" xlink:href="#Bm"><stop offset="0" stop-color="#554847"/><stop offset="1" stop-color="#78909f"/><stop offset="1" stop-color="#784b45"/></radialGradient><clipPath id="u"><path d="M43.1 211.95h7.57v16.52H43.1z" class="CJ"/></clipPath><clipPath id="v"><path d="M43.1 211.95h7.57v16.53H43.1z" class="CJ"/></clipPath><clipPath id="w"><path d="M97.18 205.15a.58.58 0 0 0 0 .4q.85 3.57 1.69 7.14a2.13 2.13 0 0 1 .05 1.15.84.84 0 0 1-.91.58c0 .27-.78.77-.85.65a4.27 4.27 0 0 1 .78 1.72 1.81 1.81 0 0 1-.55 1 2.83 2.83 0 0 0-.19.25l-.23.37-.37.62c-.11.21-.16.38-.24.57l-.21.49a7 7 0 0 0-.28 1.15 13.73 13.73 0 0 0-.15 1.69 7.09 7.09 0 0 0 .08 1.4v.34a2.13 2.13 0 0 0 .47 1 .63.63 0 0 0 .16.19.7.7 0 0 0 .14.13 3.24 3.24 0 0 0 1.66.87c.08 0 .15.06.23.08h.16.35a9.34 9.34 0 0 0 1 0h.26a4 4 0 0 0 1-.08.49.49 0 0 0 .16-.06l.25-.12a2.8 2.8 0 0 1 .55-.15l.57-.11.55-.09a6.07 6.07 0 0 0 .68-.17l.22-.06a2.73 2.73 0 0 0 .47-.23.87.87 0 0 0 .17-.1l.13-.07a17.26 17.26 0 0 0 1.92-1.58 4.09 4.09 0 0 0 .79-.86.64.64 0 0 0 .16-.64 2.45 2.45 0 0 0-.2-.66c-.08-.18-.16-.41-.25-.67s-.08-.23-.17-.41a7.29 7.29 0 0 0-.52-1 1.17 1.17 0 0 0-.11-.18 6.74 6.74 0 0 0-.43-.62 17.37 17.37 0 0 0-2.72-2.41.61.61 0 0 1-.17-.21.51.51 0 0 1 0-.23q0-1.37.08-2.73l-1.53.3c-.71.15-1.24.29-1.83-.29a3.74 3.74 0 0 1-.84-1.72l-1.64-6.86a.15.15 0 0 0-.13-.07.25.25 0 0 0-.21.12" class="CJ"/></clipPath><radialGradient id="x" gradientTransform="translate(-34069.61 102737.23) rotate(180) scale(20.78 19.7)" xlink:href="#t"/><clipPath id="y"><path d="M95.73 210.58h7.57v16.53h-7.57z" class="CJ"/></clipPath><clipPath id="z"><path d="M95.73 210.58h7.57v16.52h-7.57z" class="CJ"/></clipPath><clipPath id="AA"><path d="M91.65 143.14c-5.32 4.46-11.35 8.4-17 12.58-1.33 1-2.86 1.72-4.17 2.72-.26.2-3 2.38-3 2.5a90.83 90.83 0 0 0 6.9 11.48.62.62 0 0 1-.66 0l.3.44c-1.15.34-2.06 1.27-3.14 1.78a31.92 31.92 0 0 0-4 2 54.39 54.39 0 0 0-3.24-4.88c-3.78 1.42-7.44 4.15-11 6.1l-11.13 6c-2.07 1.1-3.46 3.38-5.71 4.71a71.91 71.91 0 0 1-7.71 4c-1 .45-2.15 1-2.52 2-.69 1.85 1.67 3.67 1.31 5.6 5.07-.44 11.72 4.24 16 6.4a6.19 6.19 0 0 0 5.38.44 8.18 8.18 0 0 1 3.07-.4c2.67.21 5.83 2.91 8.19 4.11a144.13 144.13 0 0 0 19.31 8.15c2.66.9 5.47 1.74 8.27 1.42a21.82 21.82 0 0 0 5.49-1.66c3.82-1.51 7.77-2.61 11.26-4.68a53.45 53.45 0 0 1 12.8-5.23c3.88-1.08 8.29-1.72 11.79.2-.32-.17-.19-3.26-.33-3.85a23.79 23.79 0 0 0-1.89-4.18 29 29 0 0 0-3.26-6c-3.68-4.44-7.94-8.82-10.47-14-5.23-10.67-10.49-21.43-13.3-32.89-.8-3.3-.47-6.8-1.32-10.05l-6.22 5.21" class="CJ"/></clipPath><radialGradient id="AB" cx="-1644.3" cy="5204.04" r="1" gradientTransform="translate(-198112.26 594726.17) rotate(180) scale(120.5 114.25)" xlink:href="#Bm"><stop offset="0" stop-color="#784b45"/><stop offset="1" stop-color="#554847"/></radialGradient><clipPath id="AC"><path d="M96.77,163.14c-.07,8,0,16.53,4.45,23.35,4.09,6.26,11.38,10.13,18.9,11.94,1.67.4,3.49.79,4.6,2s1.2,3.09,1.78,4.67c.25.68,1.21,3.08,2,3.35s2.26-2.24,2.8-2.95c.77-1,1.38-2.12,2.17-3.11,2.87-3.58,8.55-3.36,12.81-5.33,3.63-1.68,6.13-4.93,8.27-8.19,5.44-8.31,11.22-19.76,11.32-29.62a17.55,17.55,0,0,0,5.45.31c0-.81-.74-12.56.06-12.68a49.65,49.65,0,0,1-11,.42c.29,2,.63,7.28-1.84,8.32a4.82,4.82,0,0,1-2.4.13c-16.75-1.94-33-4.41-49.56-7.25a9.89,9.89,0,0,1,.9-6.87L97,139q-.11,12-.21,24.1" class="CJ"/></clipPath><radialGradient id="AD" cx="-1644.3" cy="5204.04" r="1" gradientTransform="translate(-169955.7 510489.49) rotate(180) scale(103.43 98.07)" xlink:href="#Bm"><stop offset="0" stop-color="#cd6b4a"/><stop offset=".04" stop-color="#cd6b4a"/><stop offset=".6" stop-color="#784b45"/><stop offset="1" stop-color="#554847"/></radialGradient><clipPath id="AE"><path d="M101.71 186.21h35.46v12.38h-35.46z" class="CJ"/></clipPath><clipPath id="AF"><path d="M101.71 186.21h35.45v12.38h-35.45z" class="CJ"/></clipPath><clipPath id="AG"><path d="M69.69 146.39h24.98v27.15H69.69z" class="CJ"/></clipPath><clipPath id="AH"><path d="M90.21,148.38a199.62,199.62,0,0,0-20,12.26,1.24,1.24,0,0,0-.47.48.6.6,0,0,0,0,.22v.05a1.74,1.74,0,0,0,.15.57l4.09,10.2a2.57,2.57,0,0,0,.62,1,1.38,1.38,0,0,0,.87.34h.14a4.53,4.53,0,0,0,2.56-1.39,71.38,71.38,0,0,1,13.3-10,6.4,6.4,0,0,0,2-1.54c.9-1.2.72-2.81.61-4.28-.2-2.75,1.53-7.72,0-10a29.49,29.49,0,0,0-3.84,2" class="CJ"/></clipPath><radialGradient id="AI" cx="-1644.3" cy="5204.04" r="1" gradientTransform="translate(-64385.45 193581.02) rotate(180) scale(39.2 37.17)" xlink:href="#Bm"><stop offset="0" stop-color="#ea6930"/><stop offset="1" stop-color="#010101"/></radialGradient><clipPath id="AJ"><path d="M26.65 174.15h36.38V200H26.65z" class="CJ"/></clipPath><clipPath id="AK"><path d="M62 174.15a.56.56 0 0 0-.2.05c-3.6 1.63-7 4-10.45 6-4.6 2.69-9.19 5.15-13.69 8l-5.12 3.24-5.35 3.41a1.14 1.14 0 0 0-.48.47.62.62 0 0 0 0 .22h0a1.6 1.6 0 0 0 .12.5l.65 1.76a.86.86 0 0 0 .24.4 1 1 0 0 0 .66.13 10.46 10.46 0 0 1 3.65.83 11.12 11.12 0 0 0 3.29.83h.16a3.29 3.29 0 0 0 .7-.08c2.23-.51 3.66-3.44 5.18-4.86l1.28-1.16a111.19 111.19 0 0 1 12.49-9.29c2-1.35 6.21-2.87 7.59-4.82a5.25 5.25 0 0 0 .36-2.28v-.07c0-1.54-.3-3.25-1-3.28z" class="CJ"/></clipPath><radialGradient id="AL" gradientTransform="translate(-62372.67 187446.51) rotate(180) scale(37.95 35.99)" xlink:href="#AI"/><clipPath id="AM"><path d="M38.73 169.27h56.21v37.37H38.73z" class="CJ"/></clipPath><clipPath id="AN"><path d="M81.82,174.36,50.35,193a108.63,108.63,0,0,0-10.54,6.82c-.52.4-1.08.92-1.09,1.53v0a1.06,1.06,0,0,0,0,.16c.1.58.69.95,1.22,1.25l5.8,3.26a2.67,2.67,0,0,0,2,.49c1.28-.42,1.16-2.37,2.32-3,.86-.49,1.94,0,2.94,0A7.57,7.57,0,0,0,57.44,202a371.34,371.34,0,0,0,31.91-22.08c2.18-1.69,8.32-7.76,4.2-10.26a3.05,3.05,0,0,0-1.61-.41c-3.33,0-8.15,3.92-10.11,5.09" class="CJ"/></clipPath><radialGradient id="AO" gradientTransform="translate(-90516.08 271943.73) rotate(180) scale(55.08 52.22)" xlink:href="#AI"/><clipPath id="AP"><path d="M63.27 183.72h35.97v26.57H63.27z" class="CJ"/></clipPath><clipPath id="AQ"><path d="M88.82 188.77c-5.87 3.44-12 6.52-17.59 10.34-3 2-5.89 4.34-7.72 7.37a1.43 1.43 0 0 0-.25.64v.07a.54.54 0 0 0 0 .13 1.25 1.25 0 0 0 .56.61c1.65 1.14 3.53 2.33 5.51 2.37h.19a4.52 4.52 0 0 0 .72-.07 9 9 0 0 0 3.11-1.39q11.5-7 22.68-14.52a9 9 0 0 0 2.43-2.09 7.06 7.06 0 0 0 .74-3.51v-.22c0-2.1-.58-4.31-2-4.75H97c-1.65 0-7 4.34-8.21 5" class="CJ"/></clipPath><radialGradient id="AR" gradientTransform="translate(-63926.13 192227.4) rotate(180) scale(38.92 36.9)" xlink:href="#AI"/><clipPath id="AS"><path d="M27.56 190.69h100.55v29.56H27.56z" class="CJ"/></clipPath><clipPath id="AT"><path d="M27.56 190.69h100.56v29.56H27.56z" class="CJ"/></clipPath><clipPath id="AU"><path d="M70.49 161.92h6.28v10.67h-6.28z" class="CJ"/></clipPath><clipPath id="AV"><path d="M70.49 161.92h6.28v10.68h-6.28z" class="CJ"/></clipPath><clipPath id="AW"><path d="M37.25 165.72h56.76v36.57H37.25z" class="CJ"/></clipPath><clipPath id="AX"><path d="M37.25 165.73h56.76v36.57H37.25z" class="CJ"/></clipPath><clipPath id="AY"><path d="M46.55 185.06h51.27v21.64H46.55z" class="CJ"/></clipPath><clipPath id="AZ"><path d="M46.55 185.06h51.27v21.65H46.55z" class="CJ"/></clipPath><clipPath id="Aa"><path d="M81.55 200h22.57v13.92H81.55z" class="CJ"/></clipPath><clipPath id="Ab"><path d="M81.54 200h22.57v13.92H81.54z" class="CJ"/></clipPath><clipPath id="Ac"><path d="M25.67 189.89h9.15v10.46h-9.15z" class="CJ"/></clipPath><clipPath id="Ad"><path d="M25.67 189.89h9.15v10.46h-9.15z" class="CJ"/></clipPath><clipPath id="Ae"><path d="M24.05 133.38h147.27v64.09H24.05z" class="CJ"/></clipPath><clipPath id="Af"><path d="M24.05 133.39h147.27v64.09H24.05z" class="CJ"/></clipPath><clipPath id="Ag"><path d="M25.33 193.63l-2.35-5.46 41.59-26.08-3.2-6.48 37.97-25.68 10.88 3.49-1.13 8.49 48.63 5.61.49-6.06 13.43 1.06-.32 8.04-11.04-.91.16 6.82-57.48-7.93 1.07-7.49-6.4-1.81-29.61 21.34 3.17 6.76-45.32 26.94-.54-.65z" class="CJ"/></clipPath><linearGradient id="Ah" x1="-1644.3" y1="5204.07" x2="-1643.3" y2="5204.07" gradientTransform="matrix(219.32, -81.15, 85.59, 207.96, -84795.47, -1215458.05)" xlink:href="#t"/><clipPath id="Ai"><path d="M119.19 154.6h52.18v33.59h-52.18z" class="CJ"/></clipPath><clipPath id="Aj"><path d="M158,175.18a4.41,4.41,0,0,1-.69,3l-.2.34Zm11.95-16.93c-1.81-.13-4.77-.8-6.57-.93.94.07,0,7.73-.14,8.38-.26,1.47-.57,3.73-1.74,4.86-3,2.92-12.24-.63-15.77-1.23-6.63-1.13-13.42-.67-20.15-1,9.65,1.93,19.37,2.68,29,4.62.9.18,2.72.5,3.08,1.48.52,1.41-1.59,2.51-2.65,3.45l-8.43,7.54a3.94,3.94,0,0,1-1.72,1.06,4.13,4.13,0,0,1-1.5-.05,179.26,179.26,0,0,0-24.19-2.15L135,187c2.71.46,5.44.92,8.18,1.14a9.69,9.69,0,0,0,4.32-.37,9.11,9.11,0,0,0,2.23-1.38,38.5,38.5,0,0,0,4.93-4.59,13,13,0,0,0,3.57-2.61,35.27,35.27,0,0,0,4.26-5.07c2.38-4.14,3.34-10.16,3.4-14.8a17.58,17.58,0,0,0,5.44.31v0c0-.46-.28-2.09-.37-5-.78,1.48-.29,2.16-1.06,3.64" class="CJ"/></clipPath><radialGradient id="Ak" cx="-1644.3" cy="5204.04" r="1" gradientTransform="translate(-134233.62 403425.23) rotate(180) scale(81.73 77.5)" xlink:href="#Bm"><stop offset="0" stop-color="#0bb4cb"/><stop offset=".14" stop-color="#0bb4cb"/><stop offset=".28" stop-color="#0a9baf"/><stop offset=".59" stop-color="#065c68"/><stop offset="1" stop-color="#010101"/></radialGradient><filter id="Al" x="22.99" y="129.93" width="148.66" height="90.34" filterUnits="userSpaceOnUse" class="CP"><feFlood flood-color="#fff"/><feBlend in="SourceGraphic"/></filter><mask id="Am" x="22.99" y="129.93" width="148.66" height="90.34" maskUnits="userSpaceOnUse"><g clip-path="url(#F)" filter="url(#Al)"><g class="D"><g clip-path="url(#G)"><g mask="url(#I)"><path class="M" d="M22.99 129.93h148.65v90.34H22.99z" fill="url(#I)"/></g></g></g></g></mask><clipPath id="An"><path d="M22.99 129.93h148.65v90.32H22.99z" class="CJ"/></clipPath><clipPath id="Ao"><path d="M61.38 155.62l1 2-2.09 1.41 2.15 4.36L23 188.17l1.1 2.57h0l1.42 4.29c-.1 1.65 1.75 3.29 1.42 5 3.24-.29 7.11 1.53 10.61 3.43l3 1.68c.94.53 1.65.92 2.37 1.28a7.45 7.45 0 0 0 2.54.83 5.11 5.11 0 0 0 1 0 10 10 0 0 0 1.8-.39 8.22 8.22 0 0 1 3.1-.4 6.85 6.85 0 0 1 2.07.56c2.13.9 4.35 2.64 6.11 3.54q2.33 1.19 4.7 2.3a143.91 143.91 0 0 0 14.61 5.85 34.07 34.07 0 0 0 4.08 1.17 16.44 16.44 0 0 0 2.09.29h.67.39q.52 0 1-.07a14 14 0 0 0 2.79-.65c.45-.15.91-.31 1.35-.48l1.34-.53c3.82-1.51 7.77-2.61 11.26-4.68a53.55 53.55 0 0 1 12.8-5.23c3.71-1 7.89-1.63 11.3 0 0 .05.12.08.1 0s.26.1.38.17c-.07 0-.12-.24-.15-.5a.91.91 0 0 0 .28.17c.74.24 2.26-2.24 2.8-2.95.77-1 1.38-2.12 2.17-3.11 2.87-3.58 8.55-3.36 12.8-5.33 3.63-1.68 6.14-4.94 8.27-8.19a88.38 88.38 0 0 0 7.84-14.69s.07-.08.09-.13c2.38-4.14 3.34-10.16 3.39-14.8a17.3 17.3 0 0 0 2.71.36h1.37.44a9 9 0 0 0 .93 0c0-.35-.12-2.68-.21-5.25 0 0 .07-3.8.16-3.79l.32-8-13.44-1.06-.49 6.07-48.62-5.61 1.12-8.49-10.88-3.49z" class="CJ"/></clipPath><radialGradient id="Ap" cx="-1644.3" cy="5204.04" r="1" gradientTransform="translate(-281741.85 845949.77) rotate(180) scale(171.42 162.54)" xlink:href="#Bm"><stop offset="0" stop-color="#32589f"/><stop offset=".74" stop-color="#32589f"/><stop offset="1" stop-color="#1fb8c5"/></radialGradient><clipPath id="Aq"><path d="M157.2,173a17.38,17.38,0,0,0-3.07,2.76q-5.49,5.84-10.57,12c-2.43,2.94-8,7.39-5.65,11.51a3.66,3.66,0,0,0,3.44,1.89,6,6,0,0,0,2-.75l6.42-3.29L162,190.87c3.42-1.76,7.06-3.73,8.71-7.07a8.61,8.61,0,0,0-2.38-10.28,9.55,9.55,0,0,0-5.95-2A9.45,9.45,0,0,0,157.2,173" class="CJ"/></clipPath><linearGradient id="Ar" x1="-1644.3" y1="5204.01" x2="-1643.3" y2="5204.01" gradientTransform="matrix(29.43, -27.91, 29.43, 27.91, -104630.13, -190914.08)" xlink:href="#Bm"><stop offset="0" stop-color="#554847"/><stop offset="1" stop-color="#78909f"/></linearGradient><clipPath id="As"><path d="M124.35,207.48c-6.89,4.08-13.75,7.73-21,11.16a21.83,21.83,0,0,0-3.82,2.13,10,10,0,0,0-2.78,12.54,11.18,11.18,0,0,0,12.48,4.91c4.48-1.31,7.47-5.19,10.15-8.84l16-21.83a4.32,4.32,0,0,1-3.2-4.05,46.67,46.67,0,0,0-7.8,4m7.8-4,.24-.08-.2-.41a3.08,3.08,0,0,0,0,.5" class="CJ"/></clipPath><linearGradient id="At" y1="5204.02" y2="5204.02" gradientTransform="matrix(-13.22, 34.38, -36.26, -12.54, 167059.25, 121982.96)" xlink:href="#Ar"/><clipPath id="Au"><path d="M133.53,204.92a2.59,2.59,0,0,1-1.85.48c5.68,2.9,11.11,6.42,16.67,9.5l11.93,6.6c3.36,1.86,7,3.79,10.9,3.38a9.2,9.2,0,0,0,8-7.27,8.83,8.83,0,0,0-5.28-9.25,18.4,18.4,0,0,0-4.09-1.06q-8.11-1.41-16.31-2.33a70.93,70.93,0,0,1-12.72-2.49,7.42,7.42,0,0,0-2.15-.39c-1.94,0-2.63,1.34-5.14,2.82" class="CJ"/></clipPath><linearGradient id="Av" y1="5204.06" y2="5204.06" gradientTransform="matrix(48.73, 11.27, -11.88, 46.21, 142098.39, -221736.98)" xlink:href="#Ar"/><clipPath id="Aw"><path d="M132.8,201.77l.2.15.27-.38a3.51,3.51,0,0,0-.47.23M87.53,188.55a10,10,0,0,0,2.07,12.66c3.5,2.95,8.56,3.36,13.24,3.63l28,1.62a4.19,4.19,0,0,1,2-4.69,46,46,0,0,0-7.64-4.25c-7.26-3.46-14.11-7.13-21-11.24a21.45,21.45,0,0,0-3.91-2,10.45,10.45,0,0,0-3.44-.57,11.13,11.13,0,0,0-9.3,4.84" class="CJ"/></clipPath><linearGradient id="Ax" y1="5204.06" y2="5204.06" gradientTransform="matrix(-37.85, 7.15, -7.54, -35.89, -22895.99, 198709.84)" xlink:href="#Ar"/><clipPath id="Ay"><path d="M138.57 193.58l-4.68 1.26c-1.87.5-3.83 1.06-5.17 2.39s-1.28 3.74-.21 5.82a8.91 8.91 0 0 0 4.45 4.23c1.54.63 4.69 1.26 6.15.24a5.36 5.36 0 0 0 1.24-1.4l2.37-3.49a12 12 0 0 0 1.75-3.77 4.35 4.35 0 0 0-1.59-4.65 4 4 0 0 0-2.57-.9 6.76 6.76 0 0 0-1.75.26" class="CJ"/></clipPath><radialGradient id="Az" gradientTransform="translate(-34121.02 103008.8) rotate(180) scale(20.84 19.76)" xlink:href="#AD"/><clipPath id="BA"><path d="M134.83 193.1h9.73v12.58h-9.73z" class="CJ"/></clipPath><clipPath id="BB"><path d="M138.38,193.5a5.75,5.75,0,0,0-3.15,3,7.11,7.11,0,0,0-.4,2.45v.33c.06,3.92,2.08,8.89,6,4.86l1.84-1.91a8.22,8.22,0,0,0,1.24-1.51,5.69,5.69,0,0,0-.14-5.71,3.83,3.83,0,0,0-3.4-2,5.16,5.16,0,0,0-1.93.39" class="CJ"/></clipPath><radialGradient id="BC" cx="-1644.3" cy="5204.04" r="1" gradientTransform="translate(-10504.44 32141.61) rotate(180) scale(6.47 6.14)" xlink:href="#Bm"><stop offset="0" stop-color="#ef4127"/><stop offset=".14" stop-color="#ef4127"/><stop offset=".27" stop-color="#d23922"/><stop offset=".54" stop-color="#882517"/><stop offset=".94" stop-color="#120604"/><stop offset="1" stop-color="#010101"/></radialGradient><clipPath id="BD"><path d="M124.26 194.9h16.02v13.25h-16.02z" class="CJ"/></clipPath><clipPath id="BE"><path d="M124.25 194.9h16.02v13.25h-16.02z" class="CJ"/></clipPath><clipPath id="BF"><path d="M150.17 171.63h21.44v24.45h-21.44z" class="CJ"/></clipPath><clipPath id="BG"><path d="M163.39,171.64a4.24,4.24,0,0,0-1.63.35,5.49,5.49,0,0,0-1.2.81,28.48,28.48,0,0,0-8.11,11c-1.27,3.08-3.26,9-1.72,12.23,2.94-1,5.79-2.6,8.61-3.89a33.86,33.86,0,0,0,8.56-5c2.33-2.07,3.67-4.48,3.7-7V180a8.5,8.5,0,0,0-1.63-4.75,8.92,8.92,0,0,0-6.35-3.65Z" class="CJ"/></clipPath><radialGradient id="BH" gradientTransform="translate(-44528.22 134345.15) rotate(180) scale(27.19 25.78)" xlink:href="#Ak"/><clipPath id="BI"><path d="M149.45 204.82h29.94v18.64h-29.94z" class="CJ"/></clipPath><clipPath id="BJ"><path d="M149.45 205.12h0A56.81 56.81 0 0 0 168.27 222a9.24 9.24 0 0 0 4.21 1.44h.14.39a5.92 5.92 0 0 0 2.23-.74 8 8 0 0 0 4.11-6.17c.42-4.75-3.6-7.46-7.87-8.83-5.35-1.72-11-1.75-16.58-2.57a21.56 21.56 0 0 0-3.2-.32 7.89 7.89 0 0 0-2.25.3" class="CJ"/></clipPath><radialGradient id="BK" gradientTransform="translate(-59739.83 180054.13) rotate(180) scale(36.45 34.56)" xlink:href="#Ak"/><clipPath id="BL"><path d="M86.29 183.39h27.09v21.96H86.29z" class="CJ"/></clipPath><clipPath id="BM"><path d="M97.1 183.4c-3.81 0-8 3-9.63 5.82a9.38 9.38 0 0 0-1.18 4.52v.18a9.49 9.49 0 0 0 3.91 7.71 18.84 18.84 0 0 0 7.13 2.54 49.14 49.14 0 0 0 9.18 1.19h.59a22.8 22.8 0 0 0 3.83-.35 3 3 0 0 0 2.1-1.05 2.54 2.54 0 0 0 .32-1.19v-.62-.26a13.62 13.62 0 0 0-2.53-7.28c-2.45-3.65-7.14-9.17-11.52-10.81a6.31 6.31 0 0 0-2.23-.39z" class="CJ"/></clipPath><radialGradient id="BN" gradientTransform="translate(-60885.77 183121.58) rotate(180) scale(37.07 35.15)" xlink:href="#Ak"/><clipPath id="BO"><path d="M95.58 216.06h25.21v22.67H95.58z" class="CJ"/></clipPath><clipPath id="BP"><path d="M112.76 216.06c-3.17 0-5.53 1-8.49 2.48-2.73 1.39-5.58 2.87-7.26 5.34a8.36 8.36 0 0 0-1.44 4.57v.33a10 10 0 0 0 4.58 8.08 12.3 12.3 0 0 0 3.9 1.54 11.87 11.87 0 0 0 2.43.32h.65c3.38-.21 6.17-2.59 8.21-5.16a29.21 29.21 0 0 0 4.85-8.93 10 10 0 0 0 .59-2.95v-.16a4.84 4.84 0 0 0-.17-1.25c-.81-2.87-3.66-4-6.53-4.17h-1.18z" class="CJ"/></clipPath><radialGradient id="BQ" gradientTransform="translate(-60622.05 182393.59) rotate(180) scale(36.92 35.01)" xlink:href="#Ak"/><clipPath id="BR"><path d="M108.65 141.5h62.95v11.48h-62.95z" class="CJ"/></clipPath><clipPath id="BS"><path d="M158.19 141.64l-.46 5.89-48.2-5.53c-.85.69-1.23 2-.45 2.71a3.09 3.09 0 0 0 1.62.64q8.72 1.67 17.51 3l32 4.67.11-3.24s11 .69 11 1.11h0l.18-5 .09-2.32a3.39 3.39 0 0 0-.22-1.09l-12.59-1c-.2 0-.4.08-.59.13" class="CJ"/></clipPath><radialGradient id="BT" gradientTransform="translate(-95888.33 288350.7) rotate(180) scale(58.41 55.38)" xlink:href="#Ak"/><clipPath id="BU"><path d="M98.17 130.01h32.96v18H98.17z" class="CJ"/></clipPath><clipPath id="BV"><path d="M99.58 130c-.23.8-1.42 9.42-1.42 9.42l1.6-2.83 6 2.12-1 5.77 19.52 3.39a3.58 3.58 0 0 0 1.51.07 3.53 3.53 0 0 0 1.19-.63l4.13-2.93-22-2.48 1.13-8.49L99.59 130z" class="CJ"/></clipPath><radialGradient id="BW" gradientTransform="translate(-75909.38 228281.15) rotate(180) scale(46.24 43.84)" xlink:href="#Ak"/><clipPath id="BX"><path d="M61.38 129.83H99.5v32.25H61.38z" class="CJ"/></clipPath><clipPath id="BY"><path d="M61.37 155.62l.97 1.71 2.23 4.76-.74-6.07 35.35-24.62.32-1.57-38.13 25.79z" class="CJ"/></clipPath><radialGradient id="BZ" gradientTransform="translate(-120718.12 362637.83) rotate(180) scale(73.47 69.66)" xlink:href="#Ak"/><clipPath id="Ba"><path d="M13.6 198.18h9.81v7.28H13.6z" class="CJ"/></clipPath><clipPath id="Bb"><path d="M14.56 203.64l-.96 1.82h.01l9.16-4.95.64-2.33-8.85 5.46z" class="CJ"/></clipPath><radialGradient id="Bc" gradientTransform="translate(-20913.04 62984.86) rotate(180) scale(12.72 12.06)" xlink:href="#Ak"/><clipPath id="Bd"><path d="M22.99 163.09H63.3v32.36H22.99z" class="CJ"/></clipPath><clipPath id="Be"><path d="M22.99 188.17l2.77 7.28 1.49-1.41-.64-5.46L63.3 163.1l-40.31 25.07z" class="CJ"/></clipPath><radialGradient id="Bf" gradientTransform="translate(-122433.75 367709.18) rotate(180) scale(74.49 70.63)" xlink:href="#Ak"/><clipPath id="Bg"><path d="M46.24 219.64h8.5v8.02h-8.5z" class="CJ"/></clipPath><clipPath id="Bh"><path d="M47,220.74c-1.82,2.19-.25,6.86,2.57,6.93h.13a3.41,3.41,0,0,0,1.87-.69l2.49-1.74a1.56,1.56,0,0,0,.6-.61,1.17,1.17,0,0,0,.06-.57,4.82,4.82,0,0,0-2.66-3.66l-.14-.07a5.76,5.76,0,0,0-2.53-.68A3,3,0,0,0,47,220.74" class="CJ"/></clipPath><radialGradient id="Bi" gradientTransform="translate(-29064.24 87619.53) rotate(180) scale(17.71 16.8)" xlink:href="#Ak"/><clipPath id="Bj"><path d="M13.6 15.9h165.79v222.83H13.6z" class="CJ"/></clipPath><clipPath id="Bk"><path d="M49.1 228.28a1.58 1.58 0 0 0 .55-.08l-.55.08m54.38-11.44a.58.58 0 0 1-.17-.21.6.6 0 0 1 0-.23q0-1.14.07-2.29l.5-.26a42.87 42.87 0 0 1 4.73-2.37l4.76-1.85 3.31-1 1.42-.37a20.52 20.52 0 0 1 6-.61 249.38 249.38 0 0 1-19.23 10.26l-1.34-1.07m-49.6-83.39l1.85 1.7 1.16 1a30.08 30.08 0 0 0 2.49 1.73 34.12 34.12 0 0 0 5.43 2.73A47.16 47.16 0 0 0 79 143.68l-17.63 11.93 1 2-.59.39-1.51 1 1.79 3.63.36.73-9.23 5.79zm-9.83-14.24l-.36-1.73.09.22 1.77 3.88.34.72 2.48 4.31q.86 1.34 1.82 2.62l.26.33.94 40.77-10 6.29zm86.7 25c.3-.19 2.14-14.55 2.16-14.56 2.12-1.29 4.37-2.89 6.44-4.43l1.09-.82c1.6-1.23 3.19-2.49 4.74-3.82a87.7 87.7 0 0 0 3.16-2.87l1.08-1.08 1.83-1.87c.43-.45.84-.92 1.25-1.38l.54-.6-.38 34.12-21.58-2.55-6.75-.72-15.28-1.76v-.32l.16-1a65.24 65.24 0 0 0 8.65-3.21c.41-.17.83-.31 1.21-.43l-.06.16a7.72 7.72 0 0 1 1.8-.83c.33-.12.65-.24.94-.37a2.91 2.91 0 0 0 .73-.45.77.77 0 0 1 .11-.1c-.23.36-.44.74-.68 1.1.26-.38.49-.77.74-1.16 1.88-.89 3.76-1.84 5.58-2.86l.9-.51 1.88-1.09-1.43 13.29a9.13 9.13 0 0 0 1 .12h.12m32.72-47.42l-.18.29a.85.85 0 0 1 .18-.29m-9.3 50.3l2.23-38.48 1.24-1.7.77-1.16q1.76-2.64 3.26-5.43l1.38-2.64c.26-.49 1.17-1.73 1.13-2.25 0 .48.06 1 .07 1.44l-.06 4.36q-.34 12.26-.68 24.51-.23 8-.45 16.06h-.4l-4.49-.36-.49 6.06zM102.49 16.27c-.92 0-1.84 0-2.76.06H99a40.8 40.8 0 0 0-2.48.24l-1 .13c-.76.11-1.52.24-2.27.39l-1.25.28c-.7.16-1.39.32-2.07.51l-1.42.41-1.85.59c-.61.21-1.09.4-1.64.61l-1.59.62c-.53.22-1.31.59-2 .89-.4.19-.81.36-1.2.56-1 .52-2.07 1.07-3.17 1.72a94.13 94.13 0 0 0-3 1.85l-.79.54c-.75.51-1.49 1-2.22 1.56l-.76.58-2.2 1.71-.6.51c-.77.64-1.53 1.29-2.27 2l-.44.41q-1.19 1.09-2.35 2.23l-.28.28q-1.23 1.22-2.41 2.5l-.14.15c-.83.9-1.64 1.82-2.46 2.8s-1.61 1.95-2.38 2.95l-2.13 2.75a68.88 68.88 0 0 0-1.89 2.66l-.15.23q-.86 1.28-1.68 2.58l-.28.45c-.49.81-1 1.62-1.44 2.44l-.41.75c-.41.74-.81 1.49-1.19 2.24l-.55 1.14-.93 1.94c-.3.65-.49 1.14-.73 1.7l-.62 1.47q-.64 1.62-1.21 3.27c-.44 1.28-.83 2.57-1.18 3.87-.23.86-.42 1.73-.62 2.6l-.27 1.17c-.24 1.14-.43 2.28-.61 3.43v.27c-.19 1.24-.33 2.49-.45 3.75a39 39 0 0 0-.55 4v.38a45.44 45.44 0 0 0 .13 7.69c0 .26 0 .52.08.78.13 1.26.29 2.52.51 3.79.17 1 .37 2 .63 3.1s.47 1.9.73 2.85l.72 2.69-.67 70.15-17 10.68 1.57 4.13.91 2.75a2.61 2.61 0 0 0 0 .63 4.34 4.34 0 0 0 .25.81l-11.2 7.15-1 1.82 15.05-5.35.41.05a13.91 13.91 0 0 1 1.8.39l.29.09c.55.17 1.1.37 1.65.58l.43.17a35.61 35.61 0 0 1 1.8.81l.55.27 1.35.7.57.3h.07l2.94 1.64c.94.52 1.65.93 2.37 1.29a8.34 8.34 0 0 0 1.71.65q.82 3.47 1.64 6.95a2.09 2.09 0 0 1 .06 1.15.84.84 0 0 1-.91.57.56.56 0 0 1-.2.31.7.7 0 0 0-.24.09.48.48 0 0 0-.15.2c-.12.06-.23.1-.25.06l.24.4a1.21 1.21 0 0 0 .14.35l.21.31a1.61 1.61 0 0 1 .18.66 1.76 1.76 0 0 1-.54 1l-.21.2c-1.28 1.22-1.42 3.1-1.44 4.83v.12a7.32 7.32 0 0 0 0 .92c0 .17 0 .32.06.49s0 .23 0 .34a2.43 2.43 0 0 0 .18.4c0 .06 0 .13.05.18s.06.08.09.13a1.84 1.84 0 0 0 .14.32.81.81 0 0 0 .16.19l.14.13a3.06 3.06 0 0 0 1.26.72l.24.09.16.06c.08 0 .15.06.23.08h.16.34a9.15 9.15 0 0 0 1 0h.25a4.13 4.13 0 0 0 1-.07.88.88 0 0 0 .23-.09h.23-.16l.12-.06a3.12 3.12 0 0 1 .55-.15l.57-.11.55-.09a6.28 6.28 0 0 0 .68-.17l.22-.06a3 3 0 0 0 .47-.24 1.05 1.05 0 0 0 .17-.1l.13-.07a18.3 18.3 0 0 0 1.92-1.59 4.15 4.15 0 0 0 .79-.87 1.27 1.27 0 0 0 .17-.31 1 1 0 0 0 0-.32 2.67 2.67 0 0 0-.2-.66c-.08-.18-.16-.41-.26-.67a3.23 3.23 0 0 0-.17-.41 7.4 7.4 0 0 0-.52-1 1.1 1.1 0 0 0-.11-.18 6.75 6.75 0 0 0-.43-.62 17.36 17.36 0 0 0-2.71-2.42.59.59 0 0 1-.18-.21.65.65 0 0 1 0-.23c0-.91.06-1.82.08-2.73l-1.35.27c-.35.07-.87.14-1.32.12a1.67 1.67 0 0 1-.27-.08 1.58 1.58 0 0 1-.41-.29 3.75 3.75 0 0 1-.84-1.72c-.58-2-1.06-4.06-1.48-6.12a5.55 5.55 0 0 0 2.28-.07c.3-.07.59-.15.89-.23s.77-.2 1.19-.28l.37-.06a6.7 6.7 0 0 1 1.54-.06 5.76 5.76 0 0 1 1 .19 8.73 8.73 0 0 1 1.06.38 16.23 16.23 0 0 1 1.45.73l.38.22c.46.27.91.54 1.35.83l1.22.77.41.25a20.95 20.95 0 0 0 1.29.75l2.35 1.15 2.36 1.15c2.11 1 4.25 1.89 6.41 2.77l1.62.65c2.17.86 4.36 1.68 6.57 2.43l1.34.43 1.12.33a15.32 15.32 0 0 0 5.82.67 21.8 21.8 0 0 0 5.48-1.66l2.88-1.08 2.42-.89a1.33 1.33 0 0 1 0 .23 1.78 1.78 0 0 1-.54 1l-.22.2c-1.28 1.22-1.42 3.1-1.44 4.83v.12a7.92 7.92 0 0 0 0 .91c0 .16 0 .33.06.49s0 .23 0 .34a2.28 2.28 0 0 0 .18.4c0 .06 0 .13.05.19s.06.08.1.16a10.35 10.35 0 0 0-.41 1.56c0 .25-.08.51-.1.76a10.69 10.69 0 0 0 0 1.1v.45a9.18 9.18 0 0 0 1.09 4 9.72 9.72 0 0 0 3 3.22c.15.11.27.24.43.34l.18.09a11.69 11.69 0 0 0 1.33.67c.13.06.25.14.39.19a11.78 11.78 0 0 0 1.8.54l.19.06a11.88 11.88 0 0 0 2.43.32h.65a8.68 8.68 0 0 0 3.6-1.08c3.65-1.66 6.26-5 8.61-8.26L135 208.07c.35 0 .71 0 1.07.07a4.15 4.15 0 0 0 .61 0l11.72 6.79 11.93 6.6c3.36 1.86 7 3.79 10.9 3.38a9.21 9.21 0 0 0 8-7.27v-.62c0-.21.08-.29.1-.44s0-.45 0-.66h0a6.65 6.65 0 0 0-1.73-4.45 8.89 8.89 0 0 0-3.72-3.06 16.2 16.2 0 0 0-3.48-.93c-4.24-1.19-8.67-1.45-13.06-2l-1.48-.19-1-.13c-.61-.09-1.24-.17-1.86-.23a73.89 73.89 0 0 1-10.53-2l.21-.31a22.82 22.82 0 0 0 .88-1.51c.08-.12.19-.23.26-.36a4.93 4.93 0 0 0 .31-.77l5.65-2.9 10-5.14a36.67 36.67 0 0 0 7.1-4l.26-.2c.24-.19.49-.35.72-.56l.1-.1a11.2 11.2 0 0 0 2.22-2.56l.07-.13c.13-.21.26-.41.37-.63s.08-.21.12-.31a7.83 7.83 0 0 0-.81-8.2 8.11 8.11 0 0 0-1.56-1.65l-.12-.12c-.15-.12-.32-.21-.47-.32l-.54-.36-.42-.23a7.91 7.91 0 0 0-2.56-.89h-.41-.2a26.54 26.54 0 0 0 1-2.83 38.33 38.33 0 0 0 1.23-7.72c0-.62.06-1.22.06-1.8a17.43 17.43 0 0 0 2.76.36 16.91 16.91 0 0 0 2.68-.06v-.33c0-.73-.12-2.48-.19-4.44v-.47l.05-2.64s0-.92.11-.85v-1l.39-7.72-7.18-.28 3.94-53.74c.38-.8.71-1.62 1-2.48a27.12 27.12 0 0 0 1-3.16 18.71 18.71 0 0 0 .61-2.1 25.41 25.41 0 0 0 .54-6.47 52.1 52.1 0 0 0-3.55-22.68q-.72-2-1.59-3.92l-.12-.27q-.8-1.74-1.73-3.44l-.32-.59c-.58-1-1.21-2-1.87-3l-.48-.75c-.82-1.2-1.69-2.39-2.63-3.56-.78-1-1.62-1.88-2.5-2.78-.29-.3-.6-.58-.9-.87q-.93-.89-1.92-1.73l-1.09-.92c-.72-.58-1.47-1.13-2.23-1.67-.3-.21-.59-.44-.89-.65-1.24-.89-2.54-1.74-3.93-2.56s-2.6-1.43-3.94-2.08L141 22c-1.3-.6-2.61-1.16-4-1.67-.33-.13-.67-.23-1-.35q-1.58-.56-3.2-1l-1.49-.43q-1.88-.5-3.79-.88c-.6-.12-1.21-.21-1.81-.31-.85-.14-1.71-.27-2.57-.37l-1.84-.22q-2.34-.33-4.69-.51h-.24a84.4 84.4 0 0 0-4.52-.23h-1.78c-2.55 0-5.08.12-7.59.36" class="CJ"/></clipPath><radialGradient id="Bl" cx="-1644.3" cy="5204.04" r="1" gradientTransform="translate(-445902.77 1338876.76) rotate(180) scale(271.34 257.27)" xlink:href="#Bm"><stop offset="0" stop-color="#0bb4cb"/><stop offset=".14" stop-color="#0bb4cb"/><stop offset=".23" stop-color="#0baec5"/><stop offset=".36" stop-color="#0a9eb3"/><stop offset=".5" stop-color="#088495"/><stop offset=".67" stop-color="#06606c"/><stop offset=".84" stop-color="#043238"/><stop offset="1" stop-color="#010101"/></radialGradient><linearGradient id="Bm" gradientUnits="userSpaceOnUse"/></defs><g class="D"><g><g><g clip-path="url(#J)"><path d="M163.09 59.64l-5.71 84.62 11.96.68 5.71-84.62-11.96-.68z" fill="url(#K)"/></g><g clip-path="url(#L)"><path d="M152.66 69.34l-1.02 83.77 6.14.07 1.02-83.77-6.14-.07z" fill="url(#M)"/></g><g clip-path="url(#N)"><path d="M49.77 98.54l-1.03 84.56 5.48.06 1.03-84.56-5.48-.06z" fill="url(#O)"/></g><g clip-path="url(#P)"><path d="M39.95 102.99l-1.03 83.75 5.18.06 1.02-83.75-5.17-.06z" fill="url(#Q)"/></g><g clip-path="url(#R)"><path d="M38.83 19.02h132.65v126.06H38.83z" fill="url(#S)"/></g><g opacity=".42"><g clip-path="url(#T)"><g clip-path="url(#U)"><path d="M94,24.29c16.54-3,35.64-.31,49.81,7.75a45.79,45.79,0,0,1,13.1,10.85,57.6,57.6,0,0,1,12.3,35.6,40.87,40.87,0,0,1-1,9A14.43,14.43,0,0,1,165.92,92a50.83,50.83,0,0,0-2.78,6c4.5-9.72-12-12.25-18.3-9.11-2.64,1.32-5,2.82-6,5.48s-1.95,5.66-3,8.47a71.8,71.8,0,0,1-7.7,15.25,60.06,60.06,0,0,1-19.61,18.53c3.47-3.68,7.32-6.84,11.13-10.17,3.41-3,5.85-6.71,8.46-10.38,6.63-9.29,6.77-23.3.65-32.89-3.7-5.81-12.17-12.43-19.89-11.74-9.4.83-16.15,11.28-18.32,19-5.5-22,1.91-43.62,3.41-66.1" fill="#c74549"/></g></g></g><g opacity=".53"><g clip-path="url(#V)"><g clip-path="url(#W)"><path d="M85.89 57c0 4.73 1 9.3 4.76 12.88a9.54 9.54 0 0 0 7.75 2.75c-4.94 4-6.42 10.57-7.6 16.64l-5.75 29.44c-1.49 8.38-4.59 16.37-6.28 24.72a2.14 2.14 0 0 1-.56 1.25c-.36.31-1 .32-1.24-.11 3.16-11.51 3.8-16.66 5.07-26.56 1.06-8.3 2.05-16.87-2.09-24.4S68.49 80.31 59.5 79.22c-4.41-.54-8.51 1.31-11.77 4-8.77 7.22-4.13 28.91-1.6 37.91-3.11-7.29-6.25-14.66-7.57-22.42-1.25-7.36-1.22-14.48 1.21-21.55C46 58.88 59.58 43 77.08 33.29a54.24 54.24 0 0 1 12.38-4.84C87.34 29 87 44.13 86.84 46a105.21 105.21 0 0 0-.94 11" fill="#c74549"/></g></g></g><g clip-path="url(#X)"><path d="M192.63 23.93L41.59 0 17.41 137.2l151.04 23.94 24.18-137.21z" fill="url(#Y)"/></g><g clip-path="url(#Z)"><path d="M37.59 15.9h135.19v122.66H37.59z" fill="url(#a)"/></g><g class="CN"><g clip-path="url(#b)"><g clip-path="url(#c)"><path d="M38.85,80.29a66.25,66.25,0,0,0,.6,22.31C43,120.08,54.55,135.71,73,141c15.8,4.55,34.1,2.32,48.44-5.33-4,2.13-8.84,2.14-13.43,2-13-.46-26.51-2.06-37.12-9.12-14.7-9.77-21.34-28.77-20-45.13.39-4.75,1-10.82,6.44-12.78a9.23,9.23,0,0,1,8.32,1.12c-3.21-7-2.92-15.19-.45-22.49,4.78-14.15,15.68-24.57,30-30.34a30.24,30.24,0,0,1,10.47-2.49c-9.9-1-20,1.84-28.45,6.8-16,9.36-29.11,26.16-35,43a74.73,74.73,0,0,0-3.4,14.05" fill="#692941"/></g></g></g><g class="m"><g clip-path="url(#d)"><g clip-path="url(#e)"><path d="M75.77 16.43h97.38V97.9H75.77z" fill="url(#f)"/></g></g></g><g class="q" opacity=".83"><g clip-path="url(#g)"><g clip-path="url(#h)"><path d="M143.33 76.08h25.07v20.89h-25.07z" fill="url(#i)"/></g></g></g><g class="q" opacity=".83"><g clip-path="url(#j)"><g clip-path="url(#k)"><path d="M89.13 58.93h50.46v59.6H89.13z" fill="url(#l)"/></g></g></g><g mask="url(#m)"><g class="CO"><g clip-path="url(#n)"><g clip-path="url(#o)"><path d="M37.76 15.91h133.98v128.46H37.76z" fill="url(#p)"/></g></g></g></g><path d="M132.93 129.73l-1.79 1c-.42 2.92-.94 8.1-1.43 13.52l1.31.14 1.91-14.7" fill="#807ea1"/><g clip-path="url(#q)"><path d="M15.84 210.91l18.94-7.01-6.46-15.71-18.94 7.01 6.46 15.71z" fill="url(#r)"/></g><g clip-path="url(#s)"><path d="M43.08 206.4h12.2v22.08h-12.2z" fill="url(#t)"/></g><g opacity=".4" class="CM"><g clip-path="url(#u)"><g clip-path="url(#v)"><path d="M47.38,215.2c-1-.68-.79-2.2-1.38-3.25a9.41,9.41,0,0,1,.39,2.61c0,.55-.13,1.2-.66,1.4-.26.09-.58.06-.79.22s-.21.7,0,1a2.09,2.09,0,0,1,.48,1c0,.5-.48.85-.85,1.2-1.33,1.27-1.43,3.25-1.45,5a4.85,4.85,0,0,0,.34,2.24,3.63,3.63,0,0,0,2.77,1.75,11.3,11.3,0,0,0,3.44-.2c-1.3.45-2.72-.47-3.49-1.56a6.64,6.64,0,0,1,0-7.58,1.58,1.58,0,0,1,.56-.54c.5-.25,1.11,0,1.67-.08.81-.1,1.59-.83,2.31-.47a5.4,5.4,0,0,0-1.39.12c-.47,0-1-.22-1-.66a.94.94,0,0,1,.19-.46,10,10,0,0,1,1.43-1.62c-.77-.3-1.63.4-2.49-.16"/></g></g></g><g clip-path="url(#w)"><path d="M95.71 205.04h12.2v22.08h-12.2z" fill="url(#x)"/></g><g opacity=".4" class="CM"><g clip-path="url(#y)"><g clip-path="url(#z)"><path d="M100,213.83c-1-.68-.79-2.2-1.38-3.25a9.41,9.41,0,0,1,.39,2.61c0,.55-.13,1.2-.66,1.4-.26.09-.58.06-.79.22s-.21.7,0,1a2.09,2.09,0,0,1,.48,1c0,.5-.48.85-.85,1.2-1.33,1.27-1.43,3.25-1.45,5a4.85,4.85,0,0,0,.34,2.24A3.63,3.63,0,0,0,98.83,227a11.3,11.3,0,0,0,3.44-.2c-1.3.45-2.72-.47-3.49-1.56a6.64,6.64,0,0,1,0-7.58,1.58,1.58,0,0,1,.56-.54c.5-.25,1.11,0,1.67-.08.81-.1,1.59-.83,2.31-.47a5.4,5.4,0,0,0-1.39.12c-.47,0-1-.22-1-.66a.94.94,0,0,1,.19-.46,10,10,0,0,1,1.43-1.62c-.77-.3-1.63.4-2.49-.16"/></g></g></g><path d="M62.09,169.74a2,2,0,0,0-.72.5c-.45.6,0,1.41.48,2a21.74,21.74,0,0,1,3.81,5.9c.19.53.48,1.19,1.07,1.19a1.4,1.4,0,0,0,.46-.11q4.64-1.63,9.14-3.6a3.2,3.2,0,0,0,1.17-.74c.84-1,.12-2.41-.6-3.46-1.37-2-3.47-7.21-6.53-6.77s-5.56,3.89-8.29,5.08" class="CM"/><g clip-path="url(#AA)"><path d="M24.88 137.93h103.55v82.58H24.88z" fill="url(#AB)"/></g><g clip-path="url(#AC)"><path d="M96.7 139.05h74.73v69.7H96.7z" fill="url(#AD)"/></g><g class="CM"><path d="M129.34 165.58L96.88 161a1.44 1.44 0 0 0 0 1.45c4.25 1.82 9 2.18 13.65 2.56 17.61 1.47 35.09 3.93 52.43 7.13-3.18-5.72-26.8-5.6-33.66-6.57m-28.1 14.31a26.12 26.12 0 0 1-3.22-.59l.24 1.38c.49 0 .75.38 1.18.51a13.56 13.56 0 0 0 2 .35l3.83.55 8 .85 15.72 1.48a217.19 217.19 0 0 1 24.46 4.84c.15 0-.38-.79-.41-.83a4.44 4.44 0 0 0-1.52-.85 33.23 33.23 0 0 0-5.77-1.66 267.61 267.61 0 0 0-26.51-4.08l-12.07-1.37-5.9-.58"/></g><g class="CL"><path d="M123.32 170l-1.95-.22c-1.38-.16-21.84-4.5-22-3.61a55.81 55.81 0 0 0-1 9c0 1.17.07 2.35 0 3.52a31.44 31.44 0 0 1-1-11.9 4.67 4.67 0 0 0-.18-2.63l15.08 1.74 15.77 2.1c7.17 1.7 14.44 2 21.64 3.27-4.36-.79-9.5-.64-13.93-.75-4.14-.1-8.21-.13-12.38-.58m-5.84 13.71q-5.37-.82-10.76-1.5c-1-.13-8.4 0-8.84-1l4.61 10.29a13.56 13.56 0 0 1-2.12-8.85c6.64.77 13.12 1.86 19.72 2.79s13.8 1 20.37 2.38q-11.16-2.33-22.44-4.06l-.54-.08"/></g><path d="M113.72,196a10.23,10.23,0,0,0,3.86.9c4.15.45,8,1.69,12.11,2.36.87.14,6.4,1.34,6.54,0,.05-.51-8.76-1.73-9.49-1.8q-6.77-.71-13.49-1.74a4.14,4.14,0,0,0,.48.31" class="CM"/><g class="CO CL"><g clip-path="url(#AE)"><g clip-path="url(#AF)"><path d="M117.6,194.83a38.1,38.1,0,0,1-5.49-1.73c-3.22-1.32-9.27-3.27-10.39-6.88a9.6,9.6,0,0,0,4.17,5.24c2,1.12,3.86,2.77,6.18,3.4a16.83,16.83,0,0,0,1.92.36c4.19.62,8.46,1.07,12.63,1.86a47.74,47.74,0,0,0,5,.73,37.79,37.79,0,0,1,5.54.79,46,46,0,0,0-5.1-1c-.74-.09-1.49-.15-2.23-.26s-1.19-.22-1.77-.36c-3.47-.78-7-1.29-10.47-2.13"/></g></g></g><g class="CM"><path d="M62.89 183.19a91.16 91.16 0 0 1 9.22-4.7c4-1.8 7.29-4.84 11-7.26 2.28-1.5 4.84-2.59 7-4.25 2.4-1.89 4.11-4.66 6.61-6.43-2.84 2.39-6.34 3.84-9.35 6-3.17 2.28-6.17 5.11-9.59 7-6.28 3.57-12.73 6.56-19.2 9.85-5.58 2.84-10.27 7-14.89 11.11l-7 6.25C45.13 196.58 52.19 190.3 60 185q1.45-1 2.92-1.85M78.68 191c-2.14 1.4-4.42 2.59-6.7 3.78a37.8 37.8 0 0 0-9.07 6c-1.82 1.71-6.24 6.37-9 6.37 2.59.14 4.95-1.3 7.09-2.69 5.83-3.78 12.1-6.28 17.66-10.64 1.93-1.52 3.77-3.15 5.75-4.61 4.28-3.17 9.17-5.5 14-7.81a2.5 2.5 0 0 1-1-1.83 27.47 27.47 0 0 0-12.23 6.1c-1.33 1.12-2.58 2.33-3.93 3.41a32.44 32.44 0 0 1-2.6 1.88m23.35 8.78a34.25 34.25 0 0 0 7.72-5.53c-.24.24-4.19 1.16-5.09 1.71a30.09 30.09 0 0 1-5.5 2.83 109.65 109.65 0 0 0-12.72 6.14l-2.69 1.43-3.2 1.68L70 213.63a11.73 11.73 0 0 0 4.16-.68c4.92-1.43 9.65-2.44 13.91-5.17l3.78-2.42c3.33-2.14 6.86-3.76 10.21-5.62"/></g><g class="AV" opacity=".17"><g clip-path="url(#AG)"><g clip-path="url(#AH)"><path d="M69.69 146.4h25.87v27.14H69.69z" fill="url(#AI)"/></g></g></g><g class="AV" opacity=".17"><g clip-path="url(#AJ)"><g clip-path="url(#AK)"><path d="M26.64 174.15h36.38v25.86H26.64z" fill="url(#AL)"/></g></g></g><g class="AV" opacity=".17"><g clip-path="url(#AM)"><g clip-path="url(#AN)"><path d="M38.72 169.27h58.94v37.53H38.72z" fill="url(#AO)"/></g></g></g><g class="Af" opacity=".11"><g clip-path="url(#AP)"><g clip-path="url(#AQ)"><path d="M63.27 183.73h35.97v26.57H63.27z" fill="url(#AR)"/></g></g></g><g opacity=".14"><g clip-path="url(#AS)"><g clip-path="url(#AT)"><path d="M51.33 206.5c-3.38-.27-4.42 2-8.44 0l-5.4-3a53.64 53.64 0 0 0-9.93-5.7c8.6 3.38 15 5.71 24.24 3.09 7-2 16-5.61 21.51-10.19a77.73 77.73 0 0 0-6.85 6.39l25.17 8.86a22.78 22.78 0 0 0 6.63 1.61c3.77.14 7.33-1.56 10.56-3.4 2.89-1.64 5.88-3.48 9.24-3.56 5.35-.12 7.63 4.61 10.06 8.15-.85-1-2.4-1.19-3.77-1.2a36.94 36.94 0 0 0-12.19 2 59.08 59.08 0 0 0-10.16 4.77 70.34 70.34 0 0 1-9.41 4.21 21.89 21.89 0 0 1-5.48 1.66c-2.81.32-5.61-.52-8.28-1.43a143.61 143.61 0 0 1-19.31-8.15c-2.35-1.2-5.52-3.89-8.19-4.11" fill="#203c66"/></g></g></g><g class="CN CL"><g clip-path="url(#AU)"><g clip-path="url(#AV)"><path d="M74.72,172.55a2.57,2.57,0,0,0,2.05-.69,75.47,75.47,0,0,1-6.28-9.95,35.39,35.39,0,0,1,2.25,6.27c.56,1.75.76,4,2,4.37"/></g></g></g><g class="CN CL"><g clip-path="url(#AW)"><g clip-path="url(#AX)"><path d="M37.25,202c2.76,1.26,4.64-2.4,6.46-3.9a66.94,66.94,0,0,1,8.23-5.49C58,189,87.94,169.36,94,165.72c-7.08,3.28-38.05,22.61-44.44,27-3,2-5.75,4-8.56,6.23-1.26,1-2.59,2-3.76,3.1"/></g></g></g><g class="CN CL"><g clip-path="url(#AY)"><g clip-path="url(#AZ)"><path d="M80.61,194.6,62.29,205.48a9,9,0,0,1-2.16,1,9.22,9.22,0,0,1-3.09.13l-10.49-.73c7.72,1.47,15.26-2.67,21.93-6.65,3.1-1.85,6.07-4,9.18-5.77a23.84,23.84,0,0,1,4.83-1.7,39.31,39.31,0,0,0,4.05-1.64l11.28-5.08c-5.78,3.09-11.59,6.2-17.21,9.54"/></g></g></g><g class="CN CL"><g clip-path="url(#Aa)"><g clip-path="url(#Ab)"><path d="M81.54,213.92a3.65,3.65,0,0,1,1.65-1.78c5.92-4,13.74-10.76,20.92-12.14-1,3.41-6.2,5.39-9.13,7-1.94,1.1-13,5.22-13.44,6.87"/></g></g></g><g class="CN CL"><g clip-path="url(#Ac)"><g clip-path="url(#Ad)"><path d="M32.75,190.56q-3.29,1.6-6.48,3.39a1,1,0,0,0-.4.33c-.84,1.57,1.25,4.07,1.41,5.63a6.53,6.53,0,0,1,1.61-.89c2-.67,4.11.35,5.94,1.33l-2.75-3.52c-1.35-1.73.74-5.65,2.07-6.94l-1.4.67"/></g></g></g><g opacity=".62" class="CM"><g clip-path="url(#Ae)"><g clip-path="url(#Af)"><path d="M25.86 196.26l-1.81-5.5 39.44-25.22-3.2-6.47 37.96-25.68 9.81 2.22-1.17 9.61 49.75 5.76 1.88-6.03 12.8 1.21-.16 8.19-11.64-.64-.16 6.22-57.48-7.94 1.07-7.48-6.4-1.82-29.61 21.34 3.16 6.77-43.81 26.67-.43-1.21z"/></g></g></g><g clip-path="url(#Ag)"><path d="M42.63 242.02l151.99-56.24L151.99 82.2 0 138.44l42.63 103.58z" fill="url(#Ah)"/></g><g class="BC CK"><g clip-path="url(#Ai)"><g clip-path="url(#Aj)"><path d="M119.19 154.6h52.18v33.67h-52.18z" fill="url(#Ak)"/></g></g></g><g mask="url(#Am)"><g class="CO"><g clip-path="url(#An)"><g clip-path="url(#Ao)"><path d="M22.99 129.93h148.65v90.32H22.99z" fill="url(#Ap)"/></g></g></g></g><g clip-path="url(#Aq)"><path d="M153.97 218.73l34.08-32.31-34.08-32.31-34.07 32.31 34.07 32.31z" fill="url(#Ar)"/></g><g clip-path="url(#As)"><path d="M99.24 190.51l-17.22 44.77 48.52 16.78 17.22-44.77-48.52-16.78z" fill="url(#At)"/></g><g clip-path="url(#Au)"><path d="M126.05 223.98l51.08 11.81 8.33-32.39-51.08-11.81-8.33 32.39z" fill="url(#Av)"/></g><g clip-path="url(#Aw)"><path d="M131.43 174.96l-51 9.63 6.43 30.63 51-9.63-6.43-30.63z" fill="url(#Ax)"/></g><g clip-path="url(#Ay)"><path d="M127.26 193.32h17.62v15.23h-17.62z" fill="url(#Az)"/></g><path d="M97.16,160.6a23.12,23.12,0,0,1,5.53,1.27,5.36,5.36,0,0,1-2.78-2.63,13.56,13.56,0,0,1-1.11-3.65c-.68-3.47-1-7-1.49-10.45-.94,1.72-.13,5-.09,6.95q.08,4.26-.07,8.52" class="CL"/><g class="BC CK"><g clip-path="url(#BA)"><g clip-path="url(#BB)"><path d="M134.83 193.1h10.05v15.11h-10.05z" fill="url(#BC)"/></g></g></g><g opacity=".14"><g clip-path="url(#BD)"><g clip-path="url(#BE)"><path d="M128.19,195.89q-1.19.39-2.34.9a1.69,1.69,0,0,0-.65.43,1.58,1.58,0,0,0-.27.78c-.33,2.12-.55,4.26-.67,6.4a.7.7,0,0,0,.14.57.78.78,0,0,0,.47.14q1,.07,2,.06a3.09,3.09,0,0,1-1,2.12,14.83,14.83,0,0,0,4.79.6c1.41-.05,2.68.43,4,.18a5.55,5.55,0,0,1,1.43.06,4.66,4.66,0,0,0,4.26-2.13c-1.22,1.46-4.07.95-5.74.56-2.71-.63-3.84-3-4.48-5.33a7.66,7.66,0,0,1-.31-3.76,3.28,3.28,0,0,1,2.63-2.56,25.38,25.38,0,0,0-4.2,1" fill="#203c66"/></g></g></g><g class="m"><g clip-path="url(#BF)"><g clip-path="url(#BG)"><path d="M149.18 171.64h22.42v24.44h-22.42z" fill="url(#BH)"/></g></g><g clip-path="url(#BI)"><g clip-path="url(#BJ)"><path d="M149.45 204.82h30.33v18.64h-30.33z" fill="url(#BK)"/></g></g></g><g class="BC CK"><g clip-path="url(#BL)"><g clip-path="url(#BM)"><path d="M86.29 183.4h27.09v21.96H86.29z" fill="url(#BN)"/></g></g></g><g class="BC CK"><g clip-path="url(#BO)"><g clip-path="url(#BP)"><path d="M95.58 216.06h25.21v22.67H95.58z" fill="url(#BQ)"/></g></g></g><g class="BC CK"><g clip-path="url(#BR)"><g clip-path="url(#BS)"><path d="M108.29 141.5h63.31v11.48h-63.31z" fill="url(#BT)"/></g></g></g><g class="BC CK"><g clip-path="url(#BU)"><g clip-path="url(#BV)"><path d="M98.17 130.01h32.96v18.06H98.17z" fill="url(#BW)"/></g></g></g><g class="BC CK"><g clip-path="url(#BX)"><g clip-path="url(#BY)"><path d="M61.37 129.83H99.5v32.25H61.37z" fill="url(#BZ)"/></g></g></g><path d="M171.32 150.56l.43-8.39-13.56-.53.01 1.94 12.27.1.85 6.88z" fill="#96d7e2"/><path d="M157.72 147.53l-48.63-5.62 1.12-8.49-10.71-3.59 8.8 4.55-.96 9.2 48.3 4.65 2.08-.7z" fill="#83d1d8"/><g class="BC CK"><g clip-path="url(#Ba)"><g clip-path="url(#Bb)"><path d="M13.6 198.18h9.81v7.28H13.6z" fill="url(#Bc)"/></g></g></g><g class="BC CK"><g clip-path="url(#Bd)"><g clip-path="url(#Be)"><path d="M22.99 163.1H63.3v32.35H22.99z" fill="url(#Bf)"/></g></g></g><g class="BC CK"><g clip-path="url(#Bg)"><g clip-path="url(#Bh)"><path d="M45.2 219.65h9.54v8.02H45.2z" fill="url(#Bi)"/></g></g></g><g class="CF" opacity=".33"><g clip-path="url(#Bj)"><g clip-path="url(#Bk)"><path d="M13.6 15.9h165.78v222.83H13.6z" fill="url(#Bl)"/></g></g></g></g></g></g></svg>